<?xml version="1.0" standalone="no"?><!DOCTYPE svg PUBLIC "-//W3C//DTD SVG 1.1//EN" "http://www.w3.org/Graphics/SVG/1.1/DTD/svg11.dtd" ><svg xmlns="http://www.w3.org/2000/svg"><metadata></metadata><defs><font id="1.520;TAB;Comic Code Ligatures Regular" horiz-adv-x="620"><font-face font-family="Comic Code Ligatures" font-weight="400" font-stretch="normal" units-per-em="1000" panose-1="0 0 0 0 0 0 0 0 0 0" ascent="1136" descent="-331" x-height="0" bbox="0 -225 631 836" underline-thickness="50" underline-position="-100" unicode-range="U+0000-007e" /><missing-glyph horiz-adv-x="620" d="M50 0 l520 0 l0 533 l-520 0 l0 -533 ZM100 50 l0 433 l420 0 l0 -433 l-420 0 Z" /><glyph glyph-name="" unicode="!" d="M303 227 q17 0 28 12 q12 11 12 28 q-9 89 -14 205 q-6 116 -6 211 q0 18 -11 29 q-11 11 -29 11 q-16 0 -27 -11 q-12 -11 -13 -28 q-1 -94 5 -210 q5 -117 15 -211 q2 -15 13 -25 q11 -11 27 -11 l0 0 ZM224 67 q2 -43 27 -63 q25 -21 54 -21 q10 0 18 1 q8 2 14 4 q25 12 39 32 q15 19 15 44 q-1 34 -25 55 q-25 21 -61 22 q-35 -1 -58 -22 q-22 -20 -23 -52 l0 0 Z" /><glyph glyph-name="" unicode="&quot;" d="M399 395 q16 0 27 11 q11 10 13 25 q7 67 16 149 q8 82 9 134 q0 17 -11 28 q-11 12 -29 12 q-16 0 -27 -12 q-12 -11 -13 -28 q-2 -63 -11 -142 q-9 -80 -14 -137 q0 -17 12 -28 q11 -12 28 -12 l0 0 ZM153 525 q0 -30 1 -58 q0 -28 1 -53 q1 -16 13 -27 q11 -11 27 -11 q18 0 29 11 q11 11 11 29 q0 6 -1 40 q-1 33 -1 69 q0 39 1 81 q1 42 2 83 q0 18 -11 29 q-11 11 -29 11 q-16 0 -27 -11 q-12 -11 -13 -27 q-1 -39 -2 -82 q-1 -42 -1 -84 l0 0 Z" /><glyph glyph-name="" unicode="#" d="M153 -10 q15 0 26 10 q11 9 14 24 q5 29 10 63 q5 35 10 73 q33 2 69 4 q36 2 72 4 q-3 -40 -6 -76 q-3 -37 -7 -69 q-1 -6 -1 -8 q0 -3 0 -4 q0 -18 11 -29 q11 -12 29 -12 q15 0 26 11 q11 10 14 26 q4 24 7 66 q4 43 8 98 q20 1 38 1 q18 1 33 1 q17 0 28 12 q12 11 12 28 q0 18 -12 29 q-11 11 -28 11 q-14 0 -31 0 q-17 0 -35 -1 q4 48 8 99 q4 50 8 100 q32 2 55 4 q23 2 35 3 q16 2 26 13 q11 11 11 27 q0 18 -11 29 q-11 11 -29 11 q-4 0 -25 -2 q-21 -2 -54 -5 q3 33 7 63 q4 30 8 55 q1 5 1 8 q0 3 0 5 q0 18 -11 29 q-11 11 -29 11 q-15 0 -26 -10 q-10 -9 -13 -24 q-10 -67 -19 -144 q-32 -2 -67 -5 q-34 -3 -67 -6 q5 61 7 105 q3 44 3 63 q0 17 -12 28 q-11 12 -28 12 q-17 0 -28 -11 q-11 -11 -12 -28 q-5 -94 -11 -174 q-20 -1 -36 -1 q-16 -1 -28 -1 q-17 0 -28 -11 q-12 -11 -12 -29 q0 -16 12 -28 q11 -11 28 -12 q11 0 25 1 q15 0 33 1 q-5 -57 -9 -105 q-5 -48 -10 -88 l-66 -4 q-17 -1 -28 -12 q-11 -11 -11 -28 q0 -17 12 -28 q11 -12 28 -12 l54 3 q-8 -58 -13 -89 q-5 -31 -5 -35 q0 -17 12 -28 q11 -12 28 -12 l0 0 ZM223 240 q5 48 10 97 q5 49 9 96 q32 2 66 5 q34 3 67 6 q-4 -50 -8 -99 q-4 -49 -8 -97 q-33 -2 -68 -4 q-34 -2 -68 -4 l0 0 Z" /><glyph glyph-name="" unicode="$" d="M263 -121 q14 0 23 9 q10 9 11 22 l10 79 q112 7 183 72 q70 66 72 167 q0 79 -50 122 q-50 43 -151 56 q7 55 13 109 q7 54 13 107 q52 -7 76 -17 q24 -11 36 -12 q18 0 29 12 q11 11 11 28 q0 13 -7 23 q-7 9 -18 14 q-28 13 -57 21 q-29 7 -61 11 l7 69 q0 1 1 2 q0 1 0 2 q0 15 -10 25 q-10 10 -25 10 q-15 0 -24 -9 q-10 -9 -11 -23 l-8 -73 q-109 -3 -173 -61 q-65 -58 -66 -156 q0 -75 48 -112 q48 -38 145 -43 q-3 -22 -5 -44 q-3 -21 -6 -43 l-23 -175 q-42 4 -75 19 q-33 14 -62 42 q-11 9 -26 9 q-18 0 -29 -11 q-11 -11 -11 -29 q0 -9 4 -17 q3 -8 10 -13 q39 -35 82 -54 q43 -19 97 -25 q-2 -19 -4 -38 q-2 -18 -4 -35 l0 -5 q0 -15 10 -25 q10 -10 25 -10 l0 0 ZM167 488 q1 61 40 97 q39 36 110 40 q-7 -52 -13 -105 q-7 -54 -14 -108 q-72 4 -98 22 q-26 18 -25 54 l0 0 ZM317 70 q10 80 22 167 l12 90 q72 -9 102 -33 q30 -24 29 -66 q-1 -63 -46 -107 q-44 -43 -119 -51 l0 0 Z" /><glyph glyph-name="" unicode="%" d="M98 -9 q9 0 17 5 q8 4 12 11 q68 110 216 329 q147 218 224 329 q7 9 7 21 q0 15 -10 25 q-10 10 -25 10 q-9 0 -16 -4 q-8 -4 -13 -11 q-54 -79 -206 -303 q-152 -223 -235 -357 q-6 -9 -6 -20 q0 -15 10 -25 q10 -10 25 -10 l0 0 ZM23 561 q1 -66 42 -108 q41 -41 108 -42 q66 1 104 41 q37 40 38 111 q-1 69 -43 111 q-42 41 -113 42 q-62 -1 -98 -44 q-37 -43 -38 -111 l0 0 ZM88 561 q0 41 19 65 q19 24 52 25 q43 0 67 -23 q24 -23 24 -65 q0 -87 -77 -87 q-39 0 -62 23 q-22 23 -23 62 l0 0 ZM312 142 q1 -69 42 -112 q41 -42 110 -43 q73 0 108 39 q35 40 35 119 q-1 71 -44 113 q-43 43 -115 44 q-62 -1 -98 -45 q-37 -45 -38 -115 l0 0 ZM377 142 q0 43 19 69 q19 25 52 26 q44 0 69 -25 q25 -24 25 -67 q1 -52 -17 -73 q-17 -21 -61 -20 q-40 0 -63 24 q-24 24 -24 66 l0 0 Z" /><glyph glyph-name="" unicode="&amp;" d="M239 558 q0 37 19 56 q19 20 54 20 q38 0 59 -18 q20 -18 20 -51 q0 -40 -32 -71 q-33 -31 -93 -65 q-27 69 -27 129 l0 0 ZM42 182 q1 -90 64 -142 q63 -52 172 -53 q46 0 86 15 q41 14 74 42 q33 -34 68 -69 q5 -5 13 -8 q7 -3 15 -3 q17 0 28 11 q12 11 12 29 q0 9 -3 16 q-4 7 -9 13 q-36 36 -69 70 q33 48 54 113 q21 65 29 145 q0 17 -12 28 q-11 12 -28 12 q-16 0 -27 -11 q-11 -10 -13 -26 q-12 -131 -55 -203 q-93 108 -144 201 q78 44 126 92 q47 48 48 116 q-1 67 -43 105 q-42 38 -116 39 q-71 -1 -111 -42 q-41 -42 -42 -114 q0 -40 9 -83 q9 -42 28 -87 q-70 -42 -111 -90 q-42 -48 -43 -116 l0 0 ZM122 182 q0 42 28 74 q28 32 79 64 q56 -103 158 -220 q-45 -33 -109 -33 q-75 1 -115 31 q-41 30 -41 84 l0 0 Z" /><glyph glyph-name="" unicode="&#39;" d="M298 382 q16 0 28 11 q11 11 12 26 q1 17 1 36 q1 18 1 38 q0 23 -1 81 q-2 57 -2 83 l1 39 q0 18 -11 29 q-11 11 -29 11 q-16 0 -27 -11 q-12 -10 -13 -26 q-1 -19 -1 -42 q0 -25 2 -83 q1 -58 1 -81 q0 -18 -1 -41 q-1 -23 -1 -30 q0 -17 12 -28 q11 -12 28 -12 l0 0 Z" /><glyph glyph-name="" unicode="(" d="M453 -218 q18 0 29 11 q11 11 11 29 q0 12 -6 21 q-6 10 -16 15 q-106 55 -158 154 q-52 99 -52 245 q0 146 53 268 q54 122 163 227 q6 5 10 13 q3 8 3 16 q0 18 -11 29 q-11 11 -29 11 q-8 0 -15 -3 q-7 -2 -12 -7 q-121 -117 -182 -254 q-60 -138 -60 -300 q0 -168 64 -286 q63 -119 190 -185 q8 -4 18 -4 l0 0 Z" /><glyph glyph-name="" unicode=")" d="M174 -217 q8 0 14 2 q109 43 178 166 q70 123 72 277 q-1 163 -66 317 q-66 154 -184 269 q-10 11 -27 11 q-17 0 -28 -12 q-12 -11 -12 -28 q0 -9 4 -16 q3 -8 9 -13 q105 -104 164 -243 q59 -139 60 -285 q-2 -128 -57 -231 q-55 -102 -139 -136 q-12 -4 -20 -14 q-8 -10 -8 -24 q0 -17 12 -28 q11 -12 28 -12 l0 0 Z" /><glyph glyph-name="" unicode="*" d="M187 276 q10 0 18 5 q9 4 14 12 q23 32 49 73 q26 40 49 79 q61 -73 106 -142 q5 -8 14 -12 q8 -5 19 -5 q17 0 28 11 q12 11 12 29 q0 12 -8 23 q-25 35 -54 71 q-29 36 -62 72 q41 17 80 40 q39 22 70 46 q7 5 11 14 q4 8 4 17 q0 18 -12 29 q-11 11 -28 11 q-15 0 -25 -9 q-27 -21 -59 -42 q-32 -20 -64 -37 q1 32 0 73 q-1 40 -4 70 q-2 15 -13 26 q-11 10 -27 10 q-18 0 -29 -11 q-11 -11 -11 -29 q0 -11 5 -49 q5 -38 8 -92 q-32 18 -65 39 q-32 20 -60 40 q-10 8 -24 8 q-18 0 -29 -11 q-11 -11 -11 -29 q0 -10 5 -18 q4 -9 12 -14 q31 -21 72 -44 q40 -23 80 -41 q-25 -39 -52 -78 q-27 -40 -51 -71 q-8 -10 -8 -24 q0 -17 11 -28 q11 -12 29 -12 l0 0 Z" /><glyph glyph-name="" unicode="+" d="M304 83 q18 0 29 12 q11 11 11 28 q0 6 0 24 q-1 17 -1 36 q0 33 1 67 q1 34 2 68 q40 2 81 4 q42 2 83 2 q18 0 29 12 q11 11 11 28 q0 18 -11 29 q-11 11 -29 11 q-35 0 -76 -1 q-41 -2 -85 -4 q4 76 7 126 q4 50 4 55 q0 18 -11 29 q-11 11 -29 11 q-16 0 -27 -11 q-11 -10 -13 -26 q-4 -46 -7 -94 q-2 -48 -4 -96 q-44 -4 -86 -8 q-41 -4 -77 -9 q-15 -2 -25 -13 q-11 -11 -11 -27 q0 -17 12 -28 q11 -12 28 -12 q6 0 48 5 q41 5 107 11 q-1 -35 -1 -68 q-1 -32 -1 -61 q0 -17 0 -32 q0 -15 1 -29 q1 -17 13 -28 q11 -11 27 -11 l0 0 Z" /><glyph glyph-name="" unicode="," d="M208 -212 q17 1 27 10 q89 78 132 143 q43 65 43 122 q-1 45 -28 76 q-27 31 -70 32 q-42 -1 -70 -26 q-27 -25 -28 -65 q1 -36 25 -60 q25 -24 63 -25 l7 0 q-16 -28 -48 -63 q-32 -34 -79 -75 q-7 -5 -10 -12 q-4 -8 -4 -17 q0 -18 12 -29 q11 -11 28 -11 l0 0 Z" /><glyph glyph-name="" unicode="-" d="M124 287 q55 1 173 9 q117 8 204 17 q15 3 26 14 q10 11 10 26 q0 18 -12 29 q-11 11 -28 11 q-14 -1 -135 -12 q-120 -11 -238 -14 q-18 0 -29 -11 q-11 -11 -11 -29 q0 -17 11 -28 q11 -12 29 -12 l0 0 Z" /><glyph glyph-name="" unicode="." d="M314 -16 q6 0 12 1 q5 1 11 3 q34 14 53 39 q20 24 20 56 q-1 41 -32 67 q-30 26 -75 27 q-41 -1 -66 -26 q-26 -25 -27 -66 q0 -48 27 -74 q27 -27 77 -27 l0 0 Z" /><glyph glyph-name="" unicode="/" d="M88 -217 q11 0 21 6 q9 5 14 14 q75 126 166 300 q92 173 142 292 l36 92 q27 66 54 134 q28 67 62 141 q5 8 5 18 q0 17 -12 28 q-11 12 -28 12 q-13 0 -23 -7 q-9 -6 -14 -17 q-35 -75 -63 -144 q-29 -69 -55 -135 q-9 -23 -18 -45 q-9 -23 -19 -46 q-48 -116 -137 -286 q-90 -170 -165 -295 q-6 -9 -6 -22 q0 -17 12 -28 q11 -12 28 -12 l0 0 Z" /><glyph glyph-name="" unicode="0" d="M297 -10 q105 1 180 91 q75 89 79 256 q-3 162 -75 267 q-73 105 -186 109 q-99 -4 -163 -96 q-65 -92 -67 -230 q1 -179 64 -287 q62 -107 168 -110 l0 0 ZM145 387 q2 105 45 174 q43 69 105 72 q39 0 74 -25 q34 -25 59 -70 q-72 -63 -144 -147 q-72 -83 -123 -153 q-8 32 -12 70 q-4 37 -4 79 l0 0 ZM184 166 q43 65 118 154 q75 89 152 160 q11 -32 16 -68 q6 -36 6 -75 q-3 -133 -56 -200 q-53 -66 -123 -66 q-35 0 -64 25 q-29 25 -49 70 l0 0 Z" /><glyph glyph-name="" unicode="1" d="M503 -11 q18 0 29 12 q11 11 11 28 q0 15 -10 26 q-9 11 -24 14 q-28 5 -61 7 q-33 3 -70 4 l0 60 q1 182 10 354 q9 172 10 191 q0 18 -11 29 q-11 11 -29 11 q-14 0 -24 -8 q-10 -8 -14 -20 q-14 -38 -79 -80 q-65 -41 -160 -71 q-12 -4 -20 -14 q-9 -11 -9 -25 q0 -17 12 -28 q11 -12 28 -12 q6 0 13 2 q65 20 119 48 q54 28 88 59 q-6 -111 -10 -223 q-4 -112 -4 -213 l0 -59 q-39 -1 -75 -3 q-35 -3 -61 -7 q-15 -3 -25 -14 q-10 -11 -10 -26 q0 -17 12 -28 q11 -12 28 -12 q6 1 45 5 q39 4 116 5 q89 -1 128 -6 q38 -5 47 -6 l0 0 Z" /><glyph glyph-name="" unicode="2" d="M506 -17 q18 0 29 12 q11 11 11 28 q0 16 -10 27 q-10 11 -25 13 q-68 8 -146 12 q-78 3 -151 3 q-16 0 -30 0 q-15 0 -27 -1 q22 60 62 103 q40 43 100 73 q106 51 156 111 q50 61 50 138 q-2 90 -60 151 q-57 61 -141 63 q-48 0 -100 -14 q-52 -14 -112 -42 q-11 -5 -17 -15 q-7 -10 -7 -22 q0 -17 12 -28 q11 -12 28 -12 q11 1 18 4 q50 24 93 37 q43 12 85 12 q50 -1 85 -39 q34 -38 36 -95 q1 -50 -37 -93 q-38 -42 -124 -84 q-91 -44 -146 -112 q-56 -67 -81 -165 q-2 -6 -2 -12 q0 -17 12 -28 q11 -12 28 -12 q16 0 51 1 q34 1 68 1 q148 -1 217 -7 q68 -7 75 -8 l0 0 Z" /><glyph glyph-name="" unicode="3" d="M277 -13 q113 2 182 59 q69 57 71 151 q0 67 -44 114 q-43 47 -123 66 q79 34 117 76 q37 41 37 93 q-2 73 -59 119 q-57 45 -144 46 q-46 0 -99 -13 q-53 -14 -101 -38 q-11 -5 -17 -14 q-7 -10 -7 -22 q0 -18 12 -29 q11 -11 28 -11 q5 0 9 1 q5 1 9 3 q41 20 85 32 q43 11 81 11 q54 -1 88 -25 q34 -24 35 -60 q1 -39 -54 -76 q-55 -36 -182 -75 q-13 -4 -21 -14 q-9 -11 -9 -25 l0 -2 q0 -17 12 -28 q11 -12 28 -12 q4 0 23 2 q19 2 35 2 q85 -1 133 -33 q47 -33 48 -88 q-1 -59 -47 -94 q-46 -35 -126 -36 q-40 0 -76 10 q-37 11 -76 33 q-4 2 -9 4 q-5 1 -10 1 q-18 0 -29 -12 q-11 -11 -11 -28 q0 -12 6 -21 q6 -10 15 -15 q47 -26 94 -39 q47 -13 96 -13 l0 0 Z" /><glyph glyph-name="" unicode="4" d="M419 -19 q17 0 28 11 q12 11 12 29 q0 14 -3 71 q-2 58 -4 115 q26 1 51 1 q25 0 48 0 q18 0 29 12 q11 11 11 28 q0 18 -11 29 q-11 11 -29 11 q-23 0 -49 0 q-26 0 -52 -1 q-2 84 -2 167 q0 49 1 102 q1 52 3 117 q0 18 -12 29 q-11 11 -28 11 q-8 0 -15 -3 q-8 -3 -13 -8 q-102 -106 -180 -209 q-79 -103 -166 -243 q-3 -5 -5 -11 q-2 -6 -2 -12 q0 -17 12 -28 q11 -12 28 -12 q8 1 85 7 q78 7 216 11 q3 -93 7 -185 q1 -17 12 -28 q11 -11 28 -11 l0 0 ZM141 273 q57 94 111 167 q54 73 118 145 q-1 -31 -2 -64 q0 -32 0 -67 q0 -41 1 -84 q0 -42 1 -85 q-64 -2 -123 -5 q-60 -3 -106 -7 l0 0 Z" /><glyph glyph-name="" unicode="5" d="M258 -15 q138 1 213 72 q76 71 77 199 q-2 91 -61 147 q-59 56 -154 58 q-37 0 -79 -11 q-41 -12 -83 -33 q3 30 7 83 q5 53 10 114 q66 6 143 9 q77 3 131 3 q18 0 29 12 q11 11 11 28 q0 18 -11 29 q-11 11 -29 11 q-52 0 -126 -3 q-74 -3 -141 -8 l0 5 q0 17 -11 28 q-11 12 -29 12 q-16 0 -27 -11 q-11 -10 -13 -26 q-7 -78 -16 -180 q-9 -102 -15 -168 l0 -4 q0 -18 12 -29 q11 -11 28 -11 q12 0 22 6 q47 30 97 47 q49 17 90 17 q61 -1 98 -35 q36 -34 37 -90 q0 -93 -53 -141 q-53 -49 -157 -49 q-28 0 -55 4 q-26 4 -52 13 q-6 3 -13 3 q-18 0 -29 -12 q-11 -11 -11 -28 q0 -14 8 -24 q8 -11 20 -14 q65 -23 132 -23 l0 0 Z" /><glyph glyph-name="" unicode="6" d="M323 -15 q105 2 176 64 q70 62 73 154 q-1 105 -65 164 q-65 59 -179 60 q-49 0 -94 -16 q-45 -16 -86 -50 q14 131 79 203 q65 71 169 72 q22 0 44 -3 q21 -3 43 -10 q6 -2 12 -2 q18 0 29 11 q11 11 11 29 q0 14 -8 24 q-8 11 -21 15 q-27 8 -55 12 q-27 4 -55 4 q-155 -2 -243 -116 q-89 -113 -91 -312 q1 -154 68 -229 q66 -74 193 -74 l0 0 ZM142 267 q43 41 88 61 q45 19 98 19 q81 0 123 -37 q41 -37 41 -107 q-2 -57 -50 -97 q-47 -39 -119 -41 q-90 -1 -134 48 q-44 48 -47 154 l0 0 Z" /><glyph glyph-name="" unicode="7" d="M234 -16 q15 0 25 9 q11 8 14 22 q38 160 108 318 q70 159 171 315 q3 5 5 10 q2 6 2 13 q0 17 -12 28 q-11 12 -28 12 q-96 0 -211 -6 q-114 -6 -218 -15 q-16 -2 -26 -13 q-11 -11 -11 -27 q0 -17 12 -28 q11 -12 28 -12 q83 8 175 13 q92 5 176 7 q-88 -147 -151 -296 q-62 -150 -98 -299 q-1 -5 -1 -11 q0 -17 12 -28 q11 -12 28 -12 l0 0 Z" /><glyph glyph-name="" unicode="8" d="M160 534 q1 44 37 73 q35 30 88 31 q63 0 106 -25 q44 -25 63 -70 q-28 -48 -68 -90 q-39 -41 -80 -67 q-78 24 -112 60 q-35 36 -34 88 l0 0 ZM80 534 q0 -60 29 -105 q28 -45 88 -77 q-58 -38 -87 -83 q-29 -46 -29 -98 q1 -89 62 -137 q61 -48 172 -49 q111 1 177 52 q65 50 67 136 q1 69 -39 113 q-40 44 -130 72 q43 32 80 74 q37 42 64 87 q6 9 6 21 q0 6 -3 15 q-25 76 -91 119 q-67 43 -161 44 q-86 -2 -144 -53 q-59 -52 -61 -131 l0 0 ZM161 171 q0 39 28 76 q28 36 83 67 q11 -4 22 -7 q11 -3 22 -7 q96 -24 130 -52 q35 -28 33 -75 q-1 -49 -43 -78 q-43 -29 -121 -30 q-79 0 -116 27 q-38 27 -38 79 l0 0 Z" /><glyph glyph-name="" unicode="9" d="M237 -16 q9 0 17 4 q132 65 219 184 q86 119 89 260 q0 140 -65 212 q-64 71 -191 71 q-103 -3 -172 -70 q-69 -67 -72 -167 q1 -112 63 -172 q62 -60 176 -61 q38 0 71 8 q34 8 62 24 q-32 -70 -88 -126 q-56 -56 -125 -90 q-11 -5 -17 -14 q-7 -10 -7 -22 q0 -18 11 -29 q11 -12 29 -12 l0 0 ZM142 478 q2 66 48 110 q47 45 116 47 q92 1 134 -48 q43 -48 42 -155 q0 -9 -1 -19 q0 -10 -2 -19 q-33 -36 -77 -53 q-44 -16 -101 -16 q-81 0 -120 38 q-39 38 -39 115 l0 0 Z" /><glyph glyph-name="" unicode=":" d="M304 -16 q6 0 12 1 q5 1 11 3 q34 14 53 39 q20 24 20 56 q-1 41 -32 67 q-30 26 -75 27 q-41 -1 -66 -26 q-26 -25 -27 -66 q0 -48 27 -74 q27 -27 77 -27 l0 0 ZM220 515 q0 -48 27 -74 q27 -27 77 -27 q6 0 12 1 q5 1 11 3 q34 14 53 39 q20 24 20 56 q-1 41 -32 67 q-30 26 -75 27 q-41 -1 -66 -26 q-26 -25 -27 -66 l0 0 Z" /><glyph glyph-name="" unicode=";" d="M304 409 q6 0 12 1 q5 1 11 3 q34 14 53 39 q20 24 20 56 q-1 41 -32 67 q-30 26 -75 27 q-41 -1 -66 -26 q-26 -25 -27 -66 q0 -48 27 -74 q27 -27 77 -27 l0 0 ZM178 -172 q0 -18 12 -29 q11 -11 28 -11 q17 1 27 10 q89 78 132 143 q43 65 43 122 q-1 45 -28 76 q-27 31 -70 32 q-42 -1 -70 -26 q-27 -25 -28 -65 q1 -36 25 -60 q25 -24 63 -25 l7 0 q-16 -28 -48 -63 q-32 -34 -79 -75 q-7 -5 -10 -12 q-4 -8 -4 -17 l0 0 Z" /><glyph glyph-name="" unicode="&lt;" d="M494 119 q17 0 28 12 q12 11 12 28 q0 11 -6 21 q-5 9 -15 14 q-77 44 -161 85 q-84 41 -169 76 q80 54 169 107 q88 53 165 93 q10 5 16 15 q6 9 6 21 q0 17 -12 28 q-11 12 -28 12 q-5 0 -10 -1 q-5 -2 -9 -4 q-95 -50 -203 -116 q-109 -66 -200 -130 q-8 -5 -12 -14 q-5 -8 -5 -19 l0 -2 q0 -13 8 -23 q7 -10 19 -15 q99 -37 198 -84 q98 -47 188 -98 q5 -3 10 -4 q6 -2 11 -2 l0 0 Z" /><glyph glyph-name="" unicode="=" d="M110 184 q76 8 152 12 q76 4 143 4 q28 0 55 -1 q27 0 51 -2 q18 0 29 12 q11 11 11 28 q0 16 -11 28 q-10 11 -26 12 q-51 3 -109 3 q-70 0 -147 -4 q-76 -4 -151 -12 q-16 -2 -26 -13 q-11 -11 -11 -27 q0 -17 12 -28 q11 -12 28 -12 l0 0 ZM78 496 q0 -17 12 -28 q11 -12 28 -12 q80 5 192 8 q112 4 199 5 q17 1 28 12 q11 12 11 28 q0 18 -11 29 q-11 11 -29 11 q-88 -1 -200 -5 q-112 -3 -192 -8 q-16 -1 -27 -12 q-11 -12 -11 -28 l0 0 Z" /><glyph glyph-name="" unicode="&gt;" d="M131 115 q6 0 12 2 q5 1 10 5 q41 26 85 54 q43 27 90 56 q50 31 101 63 q51 32 101 65 q8 5 14 14 q5 9 5 20 l0 2 q0 13 -7 23 q-8 10 -19 14 q-89 36 -187 84 q-99 47 -194 101 q-9 6 -20 6 q-17 0 -28 -12 q-12 -11 -12 -28 q0 -11 6 -20 q5 -10 15 -15 q79 -46 162 -87 q83 -41 160 -74 q-35 -22 -70 -44 q-35 -22 -70 -44 q-46 -29 -90 -57 q-44 -28 -85 -54 q-8 -5 -14 -14 q-5 -9 -5 -20 q0 -17 12 -28 q11 -12 28 -12 l0 0 Z" /><glyph glyph-name="" unicode="?" d="M278 216 q18 0 29 12 q11 11 11 28 q0 4 -2 12 q-3 8 -3 21 q0 14 10 25 q9 11 33 23 q86 43 129 89 q43 46 43 105 q-3 77 -68 132 q-65 54 -154 57 q-44 0 -93 -13 q-49 -13 -95 -36 q-11 -5 -17 -14 q-6 -10 -6 -22 q0 -17 12 -28 q11 -12 28 -12 q10 0 19 5 q38 20 78 30 q39 10 74 10 q55 -2 97 -35 q43 -34 45 -74 q1 -29 -30 -59 q-31 -30 -105 -67 q-39 -19 -59 -47 q-21 -28 -21 -65 q0 -9 2 -20 q1 -12 4 -24 q3 -15 14 -24 q10 -9 25 -9 l0 0 ZM224 66 q0 -39 22 -60 q22 -22 62 -22 q9 0 20 3 q30 11 46 32 q17 20 17 46 q-1 32 -26 54 q-25 21 -61 22 q-35 -1 -57 -21 q-22 -21 -23 -54 l0 0 Z" /><glyph glyph-name="" unicode="@" d="M348 -178 q57 0 114 21 q57 20 99 55 q6 5 10 13 q3 8 3 17 q0 17 -11 28 q-11 12 -29 12 q-8 0 -14 -3 q-7 -2 -12 -7 q-30 -25 -74 -40 q-43 -16 -86 -16 q-126 -3 -180 79 q-53 82 -52 281 q1 187 59 291 q58 104 158 106 q71 0 112 -52 q42 -52 51 -151 q-21 14 -44 21 q-23 7 -46 7 q-87 -2 -139 -62 q-53 -60 -54 -160 q1 -84 42 -134 q41 -50 114 -51 q96 2 152 89 q57 87 58 231 q-1 162 -64 252 q-64 89 -182 90 q-139 -2 -217 -129 q-79 -127 -80 -348 q-1 -230 73 -336 q74 -105 239 -104 l0 0 ZM293 262 q1 67 31 104 q31 37 82 38 q25 0 49 -9 q24 -10 43 -27 q-6 -97 -41 -153 q-35 -57 -88 -58 q-36 0 -56 26 q-20 27 -20 79 l0 0 Z" /><glyph glyph-name="" unicode="A" d="M540 -23 q18 0 29 12 q11 11 11 29 q0 2 0 5 q0 2 -1 6 q-31 157 -73 327 q-42 170 -91 334 q-4 12 -14 21 q-11 8 -25 8 q-11 0 -20 -5 q-9 -6 -14 -14 q-55 -88 -117 -207 q-63 -120 -115 -241 l-40 -5 q-15 -2 -25 -13 q-11 -11 -11 -27 q0 -17 12 -28 q11 -12 28 -12 l2 0 q-11 -29 -21 -56 q-9 -27 -17 -52 q-2 -8 -2 -14 q0 -18 12 -29 q11 -11 28 -11 q14 0 25 8 q10 8 14 21 q9 32 22 68 q13 36 29 75 q76 7 155 13 q80 6 140 8 q11 -48 21 -95 q10 -47 19 -92 q3 -15 14 -24 q10 -10 25 -10 l0 0 ZM201 261 q37 83 79 165 q42 83 83 154 q22 -75 41 -151 q20 -77 38 -152 q-56 -2 -117 -6 q-61 -5 -124 -10 l0 0 Z" /><glyph glyph-name="" unicode="B" d="M126 -34 q12 0 21 6 q10 5 15 15 q197 4 308 57 q111 52 113 154 q0 53 -39 92 q-40 38 -112 62 q48 24 75 64 q27 40 28 94 q-1 101 -79 152 q-79 50 -224 50 q-26 0 -56 -2 q-29 -1 -63 -5 q-16 -2 -26 -13 q-11 -11 -11 -27 q1 -82 5 -340 q4 -259 5 -319 q0 -18 12 -29 q11 -11 28 -11 l0 0 ZM157 629 q39 3 75 3 q114 0 169 -31 q54 -30 54 -91 q0 -55 -48 -88 q-48 -34 -138 -38 q-51 6 -109 7 l-3 238 ZM162 310 q156 -5 247 -36 q92 -32 94 -76 q-1 -56 -88 -91 q-88 -35 -250 -40 l-3 243 Z" /><glyph glyph-name="" unicode="C" d="M292 -17 q71 0 140 30 q69 29 141 89 q13 12 13 30 q0 18 -11 29 q-11 11 -29 11 q-8 0 -14 -3 q-7 -2 -12 -7 q-61 -51 -117 -75 q-55 -24 -111 -24 q-83 0 -125 51 q-41 52 -41 156 q1 159 65 250 q64 91 173 93 q27 0 54 -7 q26 -7 56 -23 l-3 -95 q0 -17 12 -28 q11 -12 28 -12 q17 0 28 11 q12 11 12 28 l7 216 q0 18 -11 29 q-11 11 -29 11 q-16 0 -27 -11 q-12 -11 -13 -28 l-1 -34 q-27 11 -55 17 q-28 6 -58 6 q-145 -3 -230 -117 q-86 -114 -88 -306 q1 -137 64 -212 q64 -74 182 -75 l0 0 Z" /><glyph glyph-name="" unicode="D" d="M187 -9 q175 3 279 104 q104 102 107 270 q-1 164 -108 253 q-107 90 -303 91 q-19 0 -45 -2 q-26 -1 -42 -3 q-16 -2 -26 -13 q-11 -11 -11 -27 q0 -15 8 -25 q8 -9 21 -14 q3 -73 6 -163 q2 -90 2 -171 q0 -76 -2 -133 q-2 -57 -7 -112 q0 -14 9 -24 q8 -11 20 -14 q23 -8 47 -13 q24 -4 45 -4 l0 0 ZM146 629 l16 0 q162 0 247 -68 q84 -67 84 -196 q-2 -135 -83 -213 q-82 -79 -223 -81 q-9 0 -19 2 q-9 2 -19 5 q6 95 6 213 q0 82 -3 173 q-2 91 -6 165 l0 0 Z" /><glyph glyph-name="" unicode="E" d="M534 -6 q18 0 29 12 q11 11 11 28 q0 18 -11 29 q-11 11 -29 11 q-78 0 -167 5 q-88 4 -155 11 q-37 3 -50 17 q-14 13 -13 43 q0 22 3 69 q3 47 7 102 q83 0 171 5 q88 4 157 14 q15 2 25 13 q10 11 10 26 q0 18 -11 29 q-11 11 -29 11 l-6 0 q-72 -10 -150 -14 q-79 -3 -163 -3 q1 13 1 25 q0 12 0 23 q0 53 -1 92 q-1 39 -3 67 q55 9 114 14 q58 4 117 4 q54 0 88 -3 q35 -3 43 -3 q18 0 29 12 q11 11 11 28 q0 16 -10 27 q-11 11 -26 13 q-66 6 -135 6 q-62 0 -125 -5 q-63 -5 -121 -14 q-6 8 -15 12 q-8 4 -18 4 q-17 0 -28 -11 q-12 -11 -12 -29 q1 -5 6 -40 q5 -35 6 -174 q0 -24 -1 -53 q-10 -5 -15 -14 q-6 -9 -6 -21 q0 -10 5 -18 q4 -9 12 -15 q-3 -54 -6 -101 q-4 -48 -4 -78 q0 -64 34 -98 q34 -35 101 -42 q67 -7 159 -11 q91 -5 171 -5 l0 0 Z" /><glyph glyph-name="" unicode="F" d="M132 -15 q17 0 28 12 q12 11 12 28 q0 45 2 119 q1 75 3 147 q57 8 116 11 q59 4 113 4 q32 0 57 -1 q24 -2 29 -2 q17 0 28 12 q12 11 12 28 q0 16 -11 27 q-11 11 -26 13 q-42 3 -89 3 q-54 0 -112 -4 q-59 -3 -116 -11 l1 49 q0 61 -1 106 q-2 45 -5 82 q59 10 119 14 q60 5 118 5 q51 0 86 -3 q35 -3 41 -3 q18 0 29 12 q11 11 11 28 q0 16 -11 27 q-10 11 -26 13 q-64 6 -130 6 q-62 0 -125 -5 q-63 -5 -125 -15 q-5 8 -14 12 q-9 5 -19 5 q-17 0 -28 -12 q-12 -11 -12 -28 q1 -8 6 -56 q5 -49 6 -188 q0 -47 -3 -179 q-4 -132 -4 -216 q0 -17 12 -28 q11 -12 28 -12 l0 0 Z" /><glyph glyph-name="" unicode="G" d="M283 -5 q118 2 193 87 q76 85 85 224 q16 2 26 13 q11 11 11 27 q0 18 -11 29 q-11 11 -29 11 q-19 -1 -111 -13 q-91 -13 -163 -25 q-15 -3 -24 -14 q-10 -11 -10 -26 q0 -17 12 -28 q11 -12 28 -12 q9 0 53 8 q45 8 137 20 q-10 -101 -63 -160 q-53 -60 -134 -61 q-77 1 -121 53 q-44 53 -45 146 q5 147 75 249 q70 101 149 105 q28 0 69 -12 q40 -12 74 -30 q9 -5 19 -5 q18 0 29 12 q11 11 11 28 q0 12 -6 21 q-6 10 -16 15 q-41 22 -91 36 q-51 14 -89 15 q-114 -5 -206 -129 q-93 -124 -98 -305 q2 -127 68 -202 q67 -75 178 -77 l0 0 Z" /><glyph glyph-name="" unicode="H" d="M514 -22 q18 0 29 12 q11 11 11 29 q-1 20 -8 185 q-8 164 -9 262 q2 86 14 144 q11 57 13 69 q0 17 -11 28 q-11 12 -29 12 q-14 0 -24 -9 q-11 -8 -15 -21 q-12 -50 -20 -110 q-8 -60 -8 -113 q0 -19 1 -46 q0 -27 1 -60 q-51 3 -116 3 q-48 0 -94 -1 q-47 -2 -85 -5 l0 30 q0 73 -3 145 q-3 72 -8 134 q-1 16 -12 26 q-12 11 -28 11 q-17 0 -28 -12 q-12 -11 -12 -28 q1 -10 6 -90 q4 -80 5 -186 q-2 -183 -14 -263 q-12 -80 -14 -91 q0 -18 12 -29 q11 -12 28 -12 q15 0 26 10 q10 9 13 22 q11 49 17 113 q7 63 10 139 q37 3 85 5 q47 2 96 2 q66 0 119 -3 q2 -67 6 -136 q3 -68 6 -127 q1 -17 13 -28 q11 -11 27 -11 l0 0 Z" /><glyph glyph-name="" unicode="I" d="M147 -17 q64 8 160 13 q95 6 168 7 q17 0 28 12 q12 11 12 28 q0 17 -12 28 q-11 12 -28 12 q-26 0 -56 -1 q-29 0 -60 -2 q-9 77 -13 156 q-5 79 -5 151 q0 54 2 116 q1 61 5 124 q61 -3 121 -6 q17 0 28 12 q12 11 12 28 q0 16 -11 28 q-11 11 -27 12 q-61 4 -142 7 q-81 2 -175 4 q-17 0 -28 -12 q-12 -11 -12 -28 q0 -17 12 -28 q11 -11 27 -12 q27 0 56 -1 q29 0 59 -1 q-4 -63 -5 -126 q-2 -62 -2 -117 q0 -73 4 -154 q5 -80 13 -158 q-36 -2 -70 -5 q-35 -3 -65 -7 q-15 -2 -25 -13 q-11 -11 -11 -27 q0 -17 12 -28 q11 -12 28 -12 l0 0 Z" /><glyph glyph-name="" unicode="J" d="M341 -59 q67 2 100 67 q33 65 34 174 q1 75 -6 187 q-6 111 -19 255 q23 1 45 1 q22 1 40 1 q17 0 28 12 q11 11 11 28 q0 17 -12 28 q-11 12 -28 12 q-67 -1 -166 -5 q-99 -5 -179 -12 q-16 -2 -26 -13 q-11 -11 -11 -27 q0 -17 12 -28 q11 -12 28 -12 q38 4 84 7 q46 3 93 5 q14 -147 20 -257 q7 -111 6 -182 q0 -70 -16 -114 q-16 -45 -42 -46 q-69 3 -129 51 q-61 48 -65 102 q0 11 3 19 q2 9 9 16 q3 5 6 11 q2 6 2 13 q0 17 -12 28 q-11 12 -28 12 q-9 0 -16 -3 q-8 -4 -13 -10 q-16 -17 -23 -38 q-8 -22 -8 -48 q5 -90 89 -160 q84 -70 189 -74 l0 0 Z" /><glyph glyph-name="" unicode="K" d="M148 -11 q17 0 28 12 q12 11 12 28 q-4 51 -6 108 q-3 57 -3 101 q0 34 1 67 l15 9 q68 -78 153 -164 q85 -87 159 -153 q5 -5 12 -7 q7 -3 15 -3 q17 0 28 12 q12 11 12 28 q0 18 -13 30 q-70 61 -151 143 q-80 82 -147 157 q87 60 161 130 q73 69 129 145 q8 11 8 24 q0 17 -12 28 q-11 12 -28 12 q-10 0 -18 -5 q-9 -4 -14 -12 q-58 -78 -135 -149 q-78 -71 -172 -131 q6 119 13 192 q6 74 7 83 q0 17 -12 28 q-11 12 -28 12 q-16 0 -27 -10 q-11 -11 -13 -26 q-10 -101 -16 -223 q-7 -123 -7 -217 q0 -41 3 -100 q2 -58 6 -112 q2 -16 13 -26 q11 -11 27 -11 l0 0 Z" /><glyph glyph-name="" unicode="L" d="M161 -6 q105 0 202 10 q97 10 182 29 q14 3 23 14 q9 10 9 25 q0 18 -11 29 q-11 11 -29 11 q-11 -2 -91 -16 q-80 -15 -244 -21 q1 38 2 85 q0 47 0 100 q0 113 -2 222 q-2 110 -6 189 q-1 17 -12 27 q-12 11 -28 11 q-17 0 -28 -11 q-12 -11 -12 -29 q1 -5 4 -106 q4 -102 4 -303 q0 -64 -1 -122 q0 -59 -2 -104 q0 -17 12 -28 q11 -12 28 -12 l0 0 Z" /><glyph glyph-name="" unicode="M" d="M57 -13 q16 0 28 11 q11 11 12 28 q4 91 13 246 q9 154 14 254 q47 -97 82 -175 q35 -77 55 -134 q4 -12 14 -20 q10 -8 24 -8 q13 0 23 8 q10 7 14 19 q29 71 68 162 q38 91 69 163 q20 -183 31 -302 q12 -118 18 -203 q1 -15 13 -26 q11 -11 27 -11 q17 0 28 12 q12 11 12 28 q-2 45 -24 263 q-22 217 -40 380 q-2 15 -13 26 q-11 10 -27 10 q-13 0 -23 -7 q-9 -7 -14 -18 q-30 -74 -79 -187 q-50 -114 -83 -194 q-25 63 -66 150 q-42 88 -106 221 q-5 11 -15 17 q-10 6 -22 6 q-16 0 -27 -11 q-12 -11 -13 -28 q-4 -106 -16 -311 q-12 -205 -17 -329 q0 -17 11 -28 q11 -12 29 -12 l0 0 Z" /><glyph glyph-name="" unicode="N" d="M103 -15 q17 0 28 11 q11 11 12 28 q3 66 6 188 q2 122 2 248 l0 55 q75 -139 162 -274 q87 -136 162 -232 q5 -6 13 -10 q8 -4 17 -4 q16 0 28 11 q11 11 12 27 q5 76 7 164 q2 88 2 179 q0 91 -2 170 q-2 79 -7 137 q-1 16 -12 26 q-12 11 -28 11 q-17 0 -28 -11 q-12 -11 -12 -29 q1 -5 5 -81 q3 -77 4 -223 q0 -59 -1 -118 q-1 -59 -3 -113 q-83 115 -170 261 q-88 146 -155 282 q-5 10 -14 16 q-10 6 -22 6 q-17 0 -28 -11 q-12 -11 -12 -29 q1 -32 2 -78 q0 -47 0 -103 q0 -210 -4 -333 q-3 -123 -4 -131 q0 -17 12 -28 q11 -12 28 -12 l0 0 Z" /><glyph glyph-name="" unicode="O" d="M288 -8 q129 3 206 127 q77 124 79 328 q-1 123 -69 192 q-69 69 -189 70 q-124 -6 -196 -141 q-71 -135 -73 -321 q1 -120 65 -187 q63 -67 177 -68 l0 0 ZM126 247 q1 152 53 264 q51 112 136 118 q87 0 132 -47 q46 -47 46 -135 q-2 -170 -58 -271 q-56 -101 -147 -104 q-79 0 -120 45 q-42 45 -42 130 l0 0 Z" /><glyph glyph-name="" unicode="P" d="M149 -16 q18 0 29 12 q11 11 11 28 q-1 47 -2 108 q-2 62 -3 99 q21 -3 43 -3 q143 2 232 66 q88 65 91 171 q-3 105 -92 174 q-89 69 -222 72 q-56 0 -103 -12 q-13 -3 -21 -13 q-9 -11 -10 -25 q-1 -34 -1 -71 q-1 -37 -1 -78 q0 -99 3 -244 q3 -146 6 -244 q1 -17 13 -28 q11 -12 27 -12 l0 0 ZM180 512 q0 60 2 114 q24 6 54 5 q98 -2 165 -50 q66 -48 69 -116 q-2 -69 -68 -112 q-66 -44 -175 -45 q-24 0 -44 3 q-1 49 -2 100 q-1 51 -1 101 l0 0 Z" /><glyph glyph-name="" unicode="Q" d="M302 -12 q28 0 55 10 q26 10 51 27 q40 -47 80 -85 q41 -39 79 -65 q11 -8 24 -8 q18 0 29 11 q11 11 11 29 q0 10 -4 18 q-4 9 -12 14 q-36 24 -74 61 q-37 36 -75 81 q50 61 79 145 q29 83 30 171 q-2 140 -72 227 q-70 87 -184 90 q-122 -3 -196 -108 q-75 -105 -77 -275 q1 -166 66 -254 q66 -88 190 -89 l0 0 ZM126 331 q2 137 55 219 q52 82 138 84 q79 -2 127 -66 q48 -64 49 -171 q-1 -71 -22 -137 q-22 -67 -58 -116 q-24 33 -47 67 q-23 34 -43 69 q-5 10 -15 15 q-9 6 -21 6 q-17 0 -28 -11 q-12 -11 -12 -29 q0 -11 6 -20 q23 -39 49 -78 q26 -38 54 -76 q-14 -9 -28 -14 q-14 -5 -28 -5 q-87 0 -131 65 q-45 65 -45 198 l0 0 Z" /><glyph glyph-name="" unicode="R" d="M542 -35 q17 0 28 12 q12 11 12 28 q0 10 -4 18 q-4 8 -12 14 q-61 52 -135 105 q-74 54 -151 100 q133 20 201 75 q69 56 69 147 q0 109 -101 170 q-100 62 -298 77 q-17 0 -29 -9 q-11 -10 -14 -27 q-18 -166 -29 -333 q-11 -166 -11 -279 q0 -12 1 -23 q0 -11 0 -21 q1 -17 12 -28 q11 -11 28 -11 q17 0 28 12 q12 11 12 28 q0 9 0 20 q-1 11 -1 23 q0 32 1 73 q2 40 4 86 q97 -53 192 -118 q94 -65 172 -130 q11 -9 25 -9 l0 0 ZM158 307 q5 81 11 164 q6 83 14 157 q144 -15 216 -57 q71 -42 71 -107 q0 -70 -76 -110 q-77 -41 -236 -47 l0 0 Z" /><glyph glyph-name="" unicode="S" d="M293 -11 q118 2 192 69 q75 66 77 170 q0 91 -66 134 q-67 44 -202 50 q-74 3 -101 21 q-28 18 -26 55 q1 64 44 100 q43 36 121 37 q85 -2 119 -16 q34 -14 48 -16 q18 0 29 12 q11 11 11 28 q0 13 -7 23 q-7 9 -18 14 q-40 19 -85 27 q-45 8 -97 8 q-112 -1 -178 -59 q-65 -58 -67 -158 q0 -77 51 -114 q50 -37 153 -42 q106 -5 150 -30 q43 -25 41 -74 q-1 -69 -53 -113 q-51 -44 -136 -46 q-62 0 -105 14 q-43 15 -79 49 q-11 9 -26 9 q-18 0 -29 -11 q-11 -11 -11 -29 q0 -9 4 -17 q3 -8 10 -13 q48 -43 105 -63 q56 -19 131 -19 l0 0 Z" /><glyph glyph-name="" unicode="T" d="M320 -10 q18 0 29 12 q11 11 11 28 q0 113 -6 278 q-6 165 -14 306 q57 2 112 4 q55 3 105 7 q16 2 26 13 q11 11 11 27 q0 18 -11 29 q-11 11 -29 11 q-8 -1 -108 -6 q-99 -6 -270 -7 q-30 0 -58 0 q-28 0 -56 1 q-17 0 -28 -11 q-12 -11 -12 -29 q0 -16 11 -27 q11 -12 28 -13 q28 -1 57 -1 q29 0 58 0 l84 1 q8 -140 14 -305 q6 -165 6 -278 q0 -17 12 -28 q11 -12 28 -12 l0 0 Z" /><glyph glyph-name="" unicode="U" d="M308 -11 q128 0 194 78 q67 78 67 228 q0 85 -7 189 q-8 104 -19 193 q-3 15 -14 25 q-11 10 -26 10 q-17 0 -28 -12 q-12 -11 -12 -28 q2 -13 13 -122 q11 -108 13 -255 q0 -116 -44 -171 q-44 -55 -137 -55 q-83 0 -126 47 q-43 46 -43 138 q1 123 10 255 q9 132 10 149 q0 17 -12 28 q-11 12 -28 12 q-16 0 -27 -11 q-11 -10 -13 -26 q-9 -115 -14 -223 q-6 -109 -6 -184 q1 -125 66 -195 q65 -69 183 -70 l0 0 Z" /><glyph glyph-name="" unicode="V" d="M295 -20 q14 0 24 8 q10 8 14 21 q58 186 124 359 q66 173 127 301 q4 9 4 19 q0 17 -11 28 q-11 12 -29 12 q-12 0 -22 -6 q-9 -6 -14 -17 q-53 -112 -111 -262 q-58 -150 -112 -315 q-52 120 -102 270 q-51 149 -81 277 q-3 14 -14 22 q-10 9 -25 9 q-17 0 -28 -11 q-12 -11 -12 -29 q0 -4 2 -12 q37 -157 102 -340 q65 -184 128 -311 q5 -11 15 -17 q10 -6 21 -6 l0 0 Z" /><glyph glyph-name="" unicode="W" d="M189 -21 q15 0 25 9 q11 8 14 22 q13 52 42 162 q28 110 51 199 q16 -60 53 -184 q37 -125 50 -167 q3 -13 14 -21 q10 -9 24 -9 q15 0 26 10 q11 10 13 25 q25 153 65 375 q39 222 43 275 q0 17 -12 28 q-11 12 -28 12 q-16 0 -27 -10 q-10 -10 -12 -25 q-16 -110 -40 -251 q-24 -141 -41 -237 q-37 125 -59 201 q-22 77 -32 121 q-3 14 -14 23 q-10 9 -25 9 q-15 0 -25 -9 q-11 -9 -14 -24 q-15 -66 -41 -165 q-26 -100 -45 -174 q-35 153 -61 276 q-27 122 -41 209 q-2 15 -13 25 q-11 10 -26 10 q-17 0 -28 -12 q-12 -11 -12 -28 q0 -4 1 -7 q15 -98 48 -249 q33 -151 88 -388 q3 -13 14 -22 q10 -9 25 -9 l0 0 Z" /><glyph glyph-name="" unicode="X" d="M58 -16 q10 0 18 4 q8 4 13 10 q50 62 104 132 q54 71 103 140 q48 -65 109 -142 q61 -78 106 -131 q5 -7 13 -10 q8 -4 17 -4 q18 0 29 12 q11 11 11 28 q0 8 -3 15 q-2 6 -7 11 q-49 59 -116 144 q-66 84 -111 147 q55 80 117 164 q62 84 113 149 q9 11 9 25 q0 18 -11 29 q-11 11 -29 11 q-9 0 -17 -4 q-9 -4 -14 -11 q-47 -60 -105 -138 q-57 -78 -111 -155 q-47 71 -84 141 q-37 69 -65 135 q-4 11 -14 18 q-10 7 -23 7 q-17 0 -28 -12 q-12 -11 -12 -28 q0 -9 4 -17 q32 -75 75 -154 q43 -80 98 -161 q-50 -72 -108 -148 q-58 -76 -111 -141 q-5 -5 -7 -12 q-3 -6 -3 -14 q0 -17 12 -28 q11 -12 28 -12 l0 0 Z" /><glyph glyph-name="" unicode="Y" d="M312 -15 q17 0 28 12 q12 11 12 27 q2 49 5 109 q2 60 4 124 q65 97 122 202 q56 105 98 202 q2 4 3 9 q1 4 1 9 q0 18 -11 29 q-11 11 -29 11 q-12 0 -22 -7 q-9 -6 -14 -16 q-39 -90 -87 -180 q-48 -90 -100 -172 q-48 81 -104 171 q-56 91 -109 171 q-5 8 -14 12 q-8 5 -19 5 q-17 0 -28 -12 q-12 -11 -12 -28 q0 -13 8 -24 q61 -91 125 -196 q63 -104 112 -189 q-2 -61 -4 -122 q-3 -62 -5 -106 q0 -18 12 -29 q11 -12 28 -12 l0 0 Z" /><glyph glyph-name="" unicode="Z" d="M79 -7 q4 0 51 3 q46 3 183 3 q58 0 115 1 q58 1 111 5 q16 2 26 13 q11 11 11 27 q0 18 -11 29 q-11 11 -29 11 q-3 0 -51 -3 q-48 -3 -172 -3 q-41 0 -80 0 q-40 -1 -78 -2 q101 170 204 318 q103 149 189 248 q5 5 7 12 q3 7 3 15 q0 18 -11 29 q-11 11 -29 11 q-12 -1 -107 -6 q-95 -6 -209 -7 q-56 0 -86 2 q-30 2 -39 2 q-17 0 -28 -11 q-12 -11 -12 -29 q0 -16 11 -27 q11 -11 26 -13 q24 -2 57 -3 q33 -1 71 -1 q51 0 108 2 q58 2 116 5 q-88 -109 -187 -258 q-100 -148 -194 -311 q-6 -10 -6 -22 q0 -17 12 -28 q11 -12 28 -12 l0 0 Z" /><glyph glyph-name="" unicode="[" d="M234 -206 l236 -6 q18 0 29 11 q11 11 11 29 q0 16 -11 28 q-11 11 -28 12 l-196 5 q0 156 -5 429 q-5 273 -8 424 q39 4 92 8 q53 4 100 4 q18 0 29 12 q11 11 11 28 q0 18 -11 29 q-11 11 -29 11 q-63 0 -130 -6 q-68 -6 -107 -11 q-15 -2 -25 -13 q-11 -12 -11 -27 q5 -180 10 -483 q4 -304 4 -444 q0 -17 11 -28 q11 -12 28 -12 l0 0 Z" /><glyph glyph-name="" unicode="\" d="M535 -216 q17 0 28 12 q12 11 12 28 q0 8 -3 15 q-66 175 -200 457 q-134 281 -255 499 q-5 10 -14 16 q-10 6 -21 6 q-17 0 -28 -12 q-12 -11 -12 -28 q0 -12 5 -21 q120 -215 252 -493 q133 -279 198 -452 q5 -12 15 -19 q9 -8 23 -8 l0 0 Z" /><glyph glyph-name="" unicode="]" d="M160 -212 q40 0 112 3 q73 3 154 10 q16 1 26 13 q11 11 11 27 q-2 92 -18 426 q-17 333 -30 506 q-1 16 -12 26 q-12 11 -28 11 q-53 -1 -126 -7 q-73 -7 -128 -17 q-15 -3 -24 -14 q-10 -11 -10 -26 q0 -17 12 -28 q11 -12 28 -12 q2 0 4 0 q2 0 4 1 q45 8 99 14 q54 5 104 8 q13 -175 25 -425 q13 -249 19 -426 q-70 -5 -130 -8 q-59 -2 -92 -2 q-17 0 -28 -12 q-12 -11 -12 -28 q0 -18 12 -29 q11 -11 28 -11 l0 0 Z" /><glyph glyph-name="" unicode="^" d="M525 296 q17 0 28 12 q12 11 12 28 q0 11 -6 20 q-54 95 -101 194 q-48 98 -84 187 q-4 11 -14 19 q-10 7 -23 7 l-2 0 q-11 0 -20 -5 q-9 -6 -14 -14 q-33 -50 -65 -101 q-32 -51 -63 -101 q-29 -47 -56 -90 q-28 -44 -54 -85 q-4 -5 -5 -10 q-2 -6 -2 -12 q0 -17 12 -28 q11 -12 28 -12 q11 0 20 5 q9 6 14 14 q26 41 54 85 q28 44 57 90 q22 35 44 70 q22 35 44 70 q33 -77 74 -160 q41 -83 87 -162 q5 -10 15 -15 q9 -6 20 -6 l0 0 Z" /><glyph glyph-name="" unicode="_" d="M74 -225 q71 1 219 10 q149 9 257 20 q15 2 26 13 q10 11 10 27 q0 17 -11 28 q-11 12 -29 12 q-20 -2 -173 -14 q-152 -13 -299 -16 q-17 0 -28 -12 q-12 -11 -12 -28 q0 -18 12 -29 q11 -11 28 -11 l0 0 Z" /><glyph glyph-name="" unicode="`" d="M402 605 q17 0 28 12 q12 11 12 28 q0 10 -4 18 q-4 9 -12 14 l-202 151 q-5 4 -11 6 q-6 2 -13 2 q-17 0 -28 -12 q-12 -11 -12 -28 q0 -10 4 -18 q4 -9 12 -14 l202 -151 q5 -4 11 -6 q6 -2 13 -2 l0 0 Z" /><glyph glyph-name="" unicode="a" d="M511 -37 q18 0 29 11 q11 11 11 29 q-5 78 -16 176 q-11 98 -18 165 q-13 112 -62 168 q-49 55 -139 55 q-43 0 -88 -14 q-46 -13 -91 -38 q-10 -6 -16 -15 q-6 -10 -6 -21 q0 -18 12 -29 q11 -11 28 -11 q5 0 10 1 q5 1 9 4 q38 21 73 32 q36 11 69 11 q55 1 83 -34 q29 -35 38 -119 l3 -26 q-31 10 -65 15 q-33 5 -66 5 q-114 -1 -179 -47 q-64 -47 -65 -134 q1 -76 52 -119 q51 -42 142 -43 q55 0 109 21 q54 21 98 59 l5 -65 q1 -16 13 -26 q11 -11 27 -11 l0 0 ZM145 147 q0 48 41 75 q41 26 123 26 q36 0 72 -6 q36 -5 68 -15 l9 -77 q-39 -39 -92 -62 q-52 -23 -107 -23 q-58 0 -86 21 q-28 21 -28 61 l0 0 Z" /><glyph glyph-name="" unicode="b" d="M286 -20 q120 2 193 78 q72 76 74 202 q-2 134 -67 218 q-65 84 -170 87 q-71 0 -143 -68 l-1 49 q1 130 9 175 q8 45 9 52 q0 18 -11 29 q-11 11 -29 11 q-14 0 -25 -9 q-10 -8 -14 -21 q-9 -39 -14 -98 q-5 -59 -5 -139 q1 -54 5 -209 q3 -155 4 -198 q-2 -76 -15 -99 q-13 -23 -15 -39 q0 -18 12 -29 q11 -11 28 -11 q11 0 20 5 q9 5 14 14 q10 15 17 33 q28 -16 60 -24 q32 -9 64 -9 l0 0 ZM175 403 q39 41 75 62 q35 20 66 20 q69 -2 112 -63 q44 -62 45 -162 q-1 -92 -51 -145 q-49 -54 -136 -55 q-28 0 -56 7 q-28 7 -52 20 q3 24 3 52 q0 21 -2 99 q-2 79 -4 165 l0 0 Z" /><glyph glyph-name="" unicode="c" d="M301 -18 q73 0 138 29 q65 29 118 85 q11 12 11 28 q0 18 -11 29 q-11 11 -29 11 q-17 0 -28 -12 q-43 -45 -92 -67 q-49 -22 -107 -22 q-73 1 -114 46 q-41 46 -42 129 q2 104 57 175 q54 72 131 75 q35 0 73 -14 q38 -15 80 -44 q5 -3 11 -5 q6 -2 12 -2 q18 0 29 12 q11 11 11 28 q0 11 -5 19 q-5 9 -13 15 q-51 35 -101 53 q-50 18 -97 18 q-112 -4 -188 -99 q-77 -94 -80 -231 q1 -117 65 -186 q63 -68 171 -70 l0 0 Z" /><glyph glyph-name="" unicode="d" d="M282 -14 q50 0 95 20 q45 20 86 60 q10 -32 24 -58 q14 -26 28 -41 q5 -6 13 -10 q8 -4 17 -4 q17 0 28 12 q12 11 12 28 q0 16 -11 28 q-12 11 -23 38 q-12 27 -18 59 q-4 25 -8 97 q-4 72 -4 128 q2 159 19 290 q17 130 19 146 q0 18 -12 29 q-11 11 -28 11 q-15 0 -26 -10 q-11 -9 -14 -24 q-8 -53 -16 -121 q-9 -68 -14 -140 q-30 19 -62 29 q-33 10 -66 10 q-112 -3 -181 -101 q-69 -97 -71 -251 q2 -101 60 -162 q58 -61 153 -63 l0 0 ZM149 211 q2 121 50 195 q48 75 122 77 q32 0 64 -10 q32 -11 59 -29 q-3 -54 -3 -101 q0 -42 3 -97 q2 -55 6 -98 q-39 -43 -80 -62 q-41 -20 -88 -20 q-61 1 -97 40 q-35 39 -36 105 l0 0 Z" /><glyph glyph-name="" unicode="e" d="M319 -15 q64 0 121 23 q57 23 111 71 q7 5 11 13 q4 8 4 17 q0 18 -12 29 q-11 11 -28 11 q-8 0 -15 -3 q-6 -2 -12 -6 q-44 -39 -88 -57 q-43 -18 -92 -18 q-66 0 -103 26 q-38 25 -53 77 q87 31 167 68 q81 37 134 73 q42 27 60 52 q17 26 17 60 q-3 58 -61 100 q-58 42 -137 44 q-109 -1 -187 -84 q-79 -83 -83 -231 q0 -129 63 -197 q63 -67 183 -68 l0 0 ZM154 250 q3 115 58 175 q56 60 131 60 q43 -1 78 -20 q35 -20 37 -42 q1 -12 -7 -22 q-7 -10 -29 -25 q-47 -31 -119 -64 q-72 -34 -149 -62 l0 0 Z" /><glyph glyph-name="" unicode="f" d="M244 -92 q13 0 23 7 q10 8 15 19 q17 43 25 93 q8 51 8 107 q0 34 -2 133 q-2 98 -4 190 q61 4 119 11 q57 7 109 17 q15 3 24 13 q9 11 9 26 q0 17 -12 28 q-11 12 -28 12 q-8 -1 -64 -10 q-57 -10 -158 -17 l0 15 q-1 106 27 144 q28 38 103 36 q37 -1 59 -5 q21 -4 30 -5 q17 0 28 12 q12 11 12 28 q0 15 -9 25 q-9 11 -23 14 q-22 5 -47 8 q-25 3 -50 3 q-113 1 -162 -61 q-49 -61 -48 -199 l0 -19 l-45 0 q-23 0 -45 1 q-23 0 -45 1 q-17 0 -28 -12 q-12 -11 -12 -28 q0 -16 11 -27 q11 -12 27 -13 q22 -1 45 -1 q23 -1 47 -1 l46 1 q2 -91 4 -189 q2 -98 2 -131 q-2 -90 -15 -131 q-14 -42 -16 -55 q0 -17 12 -28 q11 -12 28 -12 l0 0 Z" /><glyph glyph-name="" unicode="g" d="M286 -216 q126 0 189 71 q62 71 62 213 q-1 67 -6 196 q-5 129 -6 176 q1 37 7 60 q6 22 7 31 q0 18 -11 29 q-11 11 -29 11 q-14 0 -24 -8 q-10 -8 -14 -20 q-6 -19 -10 -42 q-36 30 -74 45 q-37 15 -74 15 q-107 -2 -173 -85 q-67 -82 -69 -214 q0 -112 54 -172 q53 -59 153 -60 q52 0 99 21 q47 21 89 64 l1 -47 q1 -109 -40 -157 q-40 -48 -131 -47 q-49 0 -92 13 q-42 14 -74 37 q-10 9 -25 9 q-17 0 -28 -11 q-12 -11 -12 -29 q0 -9 4 -17 q4 -9 12 -14 q42 -32 97 -50 q56 -18 118 -18 l0 0 ZM141 262 q1 98 46 158 q44 59 116 61 q34 0 70 -16 q35 -16 72 -50 q2 -35 4 -90 q2 -56 4 -114 q-43 -53 -88 -77 q-45 -24 -97 -24 q-66 0 -96 36 q-31 37 -31 116 l0 0 Z" /><glyph glyph-name="" unicode="h" d="M477 -39 q16 0 27 11 q11 10 13 25 q8 81 12 157 q4 77 4 153 q0 119 -38 186 q-37 68 -111 69 q-45 0 -96 -36 q-51 -36 -100 -102 q-1 69 -7 157 q-5 88 -14 200 q-1 15 -12 26 q-12 11 -28 11 q-17 0 -28 -12 q-12 -11 -12 -28 q1 -16 11 -149 q10 -133 11 -259 q-1 -109 -7 -219 q-6 -111 -7 -127 q0 -17 12 -28 q11 -12 28 -12 q16 0 28 11 q11 11 12 27 q5 81 8 156 q3 76 5 131 q51 79 104 126 q53 46 92 47 q31 0 50 -45 q19 -44 19 -130 q-1 -130 -8 -211 q-7 -81 -8 -95 q0 -18 12 -29 q11 -11 28 -11 l0 0 Z" /><glyph glyph-name="" unicode="i" d="M125 -8 q80 0 184 7 q105 7 190 17 q16 2 26 13 q10 11 10 27 q0 17 -11 28 q-11 12 -29 12 q-5 0 -42 -4 q-38 -4 -97 -9 q-2 24 -4 51 q-1 28 -1 57 q1 87 8 181 q7 93 8 119 q0 29 -16 45 q-15 16 -43 16 q-35 0 -82 -4 q-48 -3 -94 -10 q-15 -3 -25 -14 q-10 -11 -10 -26 q0 -17 12 -28 q11 -12 28 -12 q10 1 57 7 q47 5 85 6 q4 0 6 -1 q1 -2 1 -7 q-2 -33 -8 -112 q-6 -78 -7 -160 q0 -31 1 -59 q2 -29 4 -54 q-36 -2 -74 -4 q-39 -1 -77 -1 q-17 0 -28 -12 q-12 -11 -12 -28 q0 -18 12 -29 q11 -12 28 -12 l0 0 ZM239 741 q1 -48 15 -67 q14 -19 36 -18 q25 2 49 33 q23 31 25 66 q-1 27 -17 44 q-17 17 -44 18 q-31 0 -47 -20 q-17 -20 -17 -56 l0 0 Z" /><glyph glyph-name="" unicode="j" d="M280 -221 q79 3 127 75 q49 73 50 183 q0 65 -5 204 q-5 138 -12 221 q-3 44 -21 65 q-18 20 -61 25 q-18 2 -41 3 q-23 1 -49 1 q-28 0 -55 -1 q-28 -1 -53 -4 q-15 -2 -25 -13 q-11 -11 -11 -27 q0 -17 12 -28 q11 -12 28 -12 q7 0 33 3 q26 2 71 2 q20 0 38 0 q17 -1 31 -2 q14 -2 18 -7 q5 -6 6 -21 q7 -85 11 -216 q5 -131 5 -193 q-1 -77 -29 -126 q-28 -50 -71 -52 q-48 -1 -82 27 q-34 28 -65 101 q-5 11 -14 18 q-10 7 -23 7 q-17 0 -28 -12 q-12 -11 -12 -28 q0 -9 4 -17 q40 -94 93 -135 q52 -42 130 -41 l0 0 ZM284 739 q0 -38 14 -62 q15 -24 46 -25 q31 1 46 28 q15 26 15 66 q0 30 -16 48 q-16 18 -44 19 q-29 -1 -45 -22 q-16 -20 -16 -52 l0 0 Z" /><glyph glyph-name="" unicode="k" d="M127 -17 q15 0 27 11 q11 10 13 26 q4 38 7 82 q3 43 6 88 q48 27 93 57 q55 -53 117 -120 q62 -67 112 -126 q5 -7 13 -10 q8 -4 17 -4 q17 0 28 12 q12 11 12 28 q0 8 -3 15 q-2 7 -7 12 q-45 54 -105 119 q-60 65 -118 121 q62 47 115 99 q53 52 96 108 q4 5 6 11 q3 7 3 14 q0 17 -12 28 q-11 12 -28 12 q-10 0 -18 -5 q-9 -4 -14 -11 q-58 -74 -134 -141 q-76 -67 -169 -123 q3 63 5 120 q1 57 1 102 q0 53 -3 127 q-2 73 -6 141 q-1 17 -12 27 q-12 11 -28 11 q-18 0 -29 -11 q-11 -11 -11 -29 q1 -10 5 -94 q3 -85 4 -172 q-1 -193 -11 -331 q-11 -138 -12 -153 q0 -18 11 -29 q11 -12 29 -12 l0 0 Z" /><glyph glyph-name="" unicode="l" d="M340 -11 q43 0 96 15 q54 15 108 42 q11 5 17 15 q6 10 6 22 q0 17 -12 28 q-11 12 -28 12 q-10 0 -19 -5 q-46 -23 -90 -36 q-44 -12 -78 -12 q-36 -2 -47 29 q-11 32 -10 124 q3 189 23 331 q20 141 23 157 q-1 26 -17 42 q-17 17 -44 17 q-37 0 -93 -7 q-56 -7 -105 -17 q-15 -3 -24 -13 q-9 -11 -9 -26 q0 -17 12 -28 q11 -12 28 -12 q11 1 64 11 q53 9 94 10 q4 0 6 -2 q2 -2 2 -6 q-19 -119 -29 -237 q-11 -119 -11 -220 q-2 -116 27 -175 q28 -59 110 -59 l0 0 Z" /><glyph glyph-name="" unicode="m" d="M533 -5 q16 0 28 11 q11 11 12 28 q1 28 2 77 q0 48 0 105 q1 150 -27 233 q-29 82 -100 83 q-30 0 -61 -20 q-31 -20 -58 -54 q-12 40 -34 62 q-22 23 -51 23 q-28 0 -58 -16 q-30 -15 -59 -44 l1 46 q0 18 -11 29 q-11 11 -29 11 q-16 0 -27 -11 q-12 -11 -13 -28 q-1 -58 -2 -136 q-1 -77 -1 -157 q0 -65 1 -120 q1 -54 2 -93 q1 -17 13 -28 q11 -11 27 -11 q18 0 29 12 q11 11 11 28 q-1 43 -2 98 q-1 55 -1 114 l1 137 q26 37 55 60 q28 23 48 24 q23 0 31 -66 q5 -42 7 -102 q3 -60 3 -121 q0 -47 -1 -72 q-2 -26 -2 -29 q0 -18 12 -29 q11 -12 28 -12 q16 0 28 11 q11 11 12 27 q2 23 2 49 q1 26 1 55 q0 48 -1 97 q-2 49 -5 91 q23 42 51 68 q27 26 47 27 q24 -1 39 -62 q14 -61 14 -174 q0 -58 0 -105 q-1 -47 -2 -75 q0 -18 12 -29 q11 -12 28 -12 l0 0 Z" /><glyph glyph-name="" unicode="n" d="M483 -12 q16 0 28 11 q11 11 12 27 q6 70 10 146 q3 76 3 136 q0 117 -43 183 q-42 66 -121 67 q-53 -1 -105 -48 q-52 -48 -98 -130 l0 25 q0 58 2 89 q1 31 1 35 q0 17 -12 28 q-11 12 -28 12 q-16 0 -27 -11 q-12 -11 -13 -27 q-2 -30 -3 -62 q0 -32 0 -64 q1 -88 4 -195 q3 -108 3 -190 q0 -18 12 -29 q11 -11 28 -11 q17 0 28 11 q12 11 12 29 q1 46 -1 103 q-1 57 -3 117 q45 105 100 171 q56 65 100 67 q39 0 62 -42 q22 -43 22 -128 q-1 -101 -6 -184 q-6 -84 -7 -95 q0 -18 12 -29 q11 -12 28 -12 l0 0 Z" /><glyph glyph-name="" unicode="o" d="M300 -16 q113 2 183 79 q69 77 71 202 q-1 140 -61 220 q-60 80 -168 81 q-109 -3 -182 -93 q-72 -89 -75 -223 q1 -126 61 -196 q60 -69 171 -70 l0 0 ZM148 250 q2 101 53 167 q50 67 124 69 q71 0 110 -57 q39 -56 39 -164 q-1 -91 -48 -145 q-48 -55 -126 -56 q-152 0 -152 186 l0 0 Z" /><glyph glyph-name="" unicode="p" d="M300 -15 q117 1 184 73 q68 71 69 195 q-2 127 -62 215 q-61 88 -153 92 q-39 0 -81 -20 q-41 -21 -81 -59 q-1 22 -3 43 q-1 20 -3 39 q-1 15 -12 26 q-12 10 -28 10 q-17 0 -28 -11 q-12 -11 -12 -29 q1 -9 8 -101 q6 -92 7 -236 q-1 -131 -8 -259 q-8 -128 -9 -145 q0 -17 12 -28 q11 -12 28 -12 q16 0 28 11 q11 10 12 26 q4 55 6 104 q3 49 5 92 q29 -11 61 -19 q32 -7 60 -7 l0 0 ZM181 389 q40 43 81 67 q41 24 76 24 q54 -3 93 -68 q40 -65 42 -159 q0 -90 -45 -138 q-45 -49 -128 -49 q-28 0 -60 6 q-31 6 -58 17 q3 79 3 133 q0 41 -1 83 q-1 42 -3 84 l0 0 Z" /><glyph glyph-name="" unicode="q" d="M489 -213 q17 0 28 12 q12 11 12 28 q-1 4 -4 79 q-4 75 -5 220 q1 151 5 238 q3 88 4 93 q0 10 -4 17 q-4 8 -11 14 q-43 36 -91 55 q-47 19 -95 19 q-110 -4 -186 -93 q-75 -89 -78 -219 q2 -115 67 -188 q65 -73 168 -75 q37 0 74 12 q36 11 68 33 q2 -59 4 -116 q2 -57 4 -92 q1 -15 12 -26 q11 -11 28 -11 l0 0 ZM144 250 q2 97 56 163 q53 66 128 69 q29 0 60 -11 q30 -12 59 -33 q-3 -62 -5 -141 q-2 -80 -2 -166 l0 -10 q-29 -26 -66 -40 q-37 -14 -75 -14 q-68 2 -111 52 q-43 50 -44 131 l0 0 Z" /><glyph glyph-name="" unicode="r" d="M160 -17 q16 0 27 11 q11 10 13 25 q6 63 10 136 q4 74 5 125 q12 85 75 146 q64 62 134 65 q14 0 23 -3 q9 -4 11 -10 q7 -24 10 -50 q3 -27 3 -45 q0 -18 12 -29 q11 -11 28 -11 q18 0 29 11 q11 11 11 29 q0 28 -6 66 q-5 39 -16 71 q-9 26 -36 39 q-27 13 -63 13 q-69 -1 -130 -42 q-61 -40 -101 -105 q-7 29 -15 58 q-8 28 -18 52 q-5 11 -14 18 q-10 7 -23 7 q-17 0 -28 -12 q-12 -11 -12 -28 q0 -9 4 -17 q19 -49 30 -107 q12 -58 12 -100 q-1 -96 -7 -178 q-7 -83 -8 -95 q0 -17 12 -28 q11 -12 28 -12 l0 0 Z" /><glyph glyph-name="" unicode="s" d="M309 -18 q99 1 163 43 q65 42 67 113 q-1 74 -58 108 q-56 34 -152 46 q-77 10 -116 28 q-39 18 -39 58 q1 48 52 80 q51 31 136 32 q28 0 47 -5 q19 -5 21 -12 q4 -14 6 -33 q1 -19 2 -40 q0 -17 12 -28 q11 -11 28 -11 q17 0 28 11 q12 11 12 29 q-1 38 -4 66 q-4 29 -9 48 q-12 30 -51 43 q-39 12 -92 12 q-117 -1 -191 -53 q-75 -52 -77 -139 q2 -81 63 -117 q61 -36 161 -48 q80 -12 111 -29 q31 -17 30 -46 q-1 -30 -43 -53 q-41 -22 -107 -23 q-53 0 -99 17 q-45 16 -87 50 q-5 4 -11 6 q-6 2 -13 2 q-18 0 -29 -11 q-11 -11 -11 -29 q0 -10 4 -18 q4 -8 12 -14 q102 -83 234 -83 l0 0 Z" /><glyph glyph-name="" unicode="t" d="M333 -15 q42 0 92 13 q50 13 97 35 q11 5 17 15 q6 10 6 22 q0 17 -11 28 q-11 12 -29 12 q-5 0 -9 -1 q-5 -2 -9 -4 q-40 -19 -80 -29 q-40 -10 -74 -10 q-37 -1 -55 29 q-18 30 -18 102 q0 66 3 133 q3 68 7 129 q47 0 117 8 q71 7 129 19 q14 3 23 14 q9 10 9 25 q0 18 -11 29 q-11 11 -29 11 q-11 -2 -81 -13 q-70 -11 -151 -13 q5 60 8 96 q4 37 4 39 q0 17 -11 28 q-11 12 -29 12 q-15 0 -26 -10 q-11 -11 -14 -26 q-3 -29 -6 -63 q-4 -35 -6 -74 q-58 4 -87 9 q-29 5 -37 6 q-17 0 -28 -11 q-12 -11 -12 -29 q0 -15 9 -25 q9 -11 23 -14 q27 -6 59 -10 q33 -4 67 -6 q-5 -73 -7 -142 q-3 -70 -3 -122 q0 -103 38 -157 q38 -55 115 -55 l0 0 Z" /><glyph glyph-name="" unicode="u" d="M273 -15 q39 0 84 17 q45 17 98 52 q7 -17 17 -35 q10 -18 21 -33 q6 -7 14 -11 q8 -4 18 -4 q18 0 29 11 q11 11 11 29 q0 7 -2 14 q-2 6 -6 11 q-15 19 -24 39 q-10 20 -12 34 q-2 16 -3 40 q-1 25 -1 70 q1 121 5 205 q3 85 4 93 q0 18 -11 29 q-11 11 -29 11 q-16 0 -27 -11 q-12 -10 -13 -26 q-4 -75 -7 -156 q-2 -82 -2 -145 q0 -33 0 -55 q1 -22 2 -37 q-52 -32 -93 -47 q-40 -15 -73 -15 q-57 -2 -80 32 q-24 34 -23 122 q0 136 36 298 q1 4 1 6 q0 3 0 5 q0 18 -11 29 q-11 11 -29 11 q-15 0 -25 -9 q-11 -9 -14 -23 q-38 -173 -38 -317 q0 -120 44 -177 q44 -57 139 -57 l0 0 Z" /><glyph glyph-name="" unicode="v" d="M323 -33 q18 0 29 12 q11 11 11 29 q0 4 0 7 q-1 3 -2 6 q56 106 109 244 q53 138 85 247 q1 4 2 7 q0 3 0 6 q0 18 -11 29 q-11 11 -29 11 q-14 0 -24 -8 q-11 -8 -15 -21 q-29 -99 -73 -215 q-44 -115 -90 -212 q-49 98 -99 210 q-50 112 -84 201 q-5 11 -15 19 q-10 7 -23 7 q-17 0 -28 -11 q-12 -11 -12 -29 q0 -7 3 -15 q44 -114 110 -257 q65 -142 121 -246 q5 -9 15 -15 q9 -6 20 -6 l0 0 Z" /><glyph glyph-name="" unicode="w" d="M171 -7 q13 0 22 7 q10 7 15 18 q25 61 54 140 q28 78 52 159 q55 -190 73 -285 q3 -14 14 -23 q10 -10 25 -10 q12 0 22 7 q10 6 15 17 q47 97 85 222 q37 125 55 250 q1 1 1 3 q0 1 0 3 q0 17 -12 28 q-11 12 -28 12 q-16 0 -27 -10 q-10 -10 -12 -25 q-14 -88 -38 -178 q-24 -89 -55 -166 q-14 60 -35 132 q-20 72 -44 150 q-4 12 -14 20 q-10 8 -24 8 q-14 0 -25 -9 q-10 -8 -14 -21 q-18 -72 -44 -151 q-25 -79 -53 -150 q-29 89 -54 203 q-25 113 -33 181 q-2 16 -13 26 q-11 11 -27 11 q-17 0 -28 -12 q-12 -11 -12 -28 l0 -4 q11 -93 48 -250 q37 -157 74 -249 q5 -11 14 -19 q10 -7 23 -7 l0 0 Z" /><glyph glyph-name="" unicode="x" d="M81 -16 q11 0 20 6 q9 5 14 14 q31 49 79 105 q48 56 101 105 q39 -49 96 -112 q57 -64 99 -107 q5 -5 13 -9 q7 -3 15 -3 q18 0 29 12 q11 11 11 29 q0 17 -12 28 q-45 46 -101 108 q-56 63 -90 107 q61 57 118 124 q57 67 83 116 q5 9 5 19 q0 18 -12 29 q-11 11 -28 11 q-12 0 -21 -6 q-10 -6 -15 -16 q-23 -42 -72 -101 q-49 -59 -105 -110 q-43 60 -87 110 q-45 50 -94 93 q-10 10 -27 10 q-17 0 -28 -12 q-12 -11 -12 -28 q0 -19 14 -31 q48 -41 90 -89 q42 -48 84 -106 q-58 -54 -112 -116 q-53 -62 -88 -117 q-4 -5 -5 -10 q-2 -6 -2 -12 q0 -18 11 -29 q11 -12 29 -12 l0 0 Z" /><glyph glyph-name="" unicode="y" d="M146 -216 q18 1 30 13 q58 65 110 142 q53 76 111 178 q49 83 97 187 q48 105 81 205 q3 7 3 14 q0 18 -12 29 q-11 11 -28 11 q-14 0 -24 -8 q-10 -7 -15 -20 q-32 -96 -78 -196 q-45 -100 -93 -181 l-8 -13 q-44 100 -99 209 q-56 108 -109 190 q-5 9 -14 14 q-9 5 -20 5 q-17 0 -28 -11 q-12 -11 -12 -29 q0 -6 2 -11 q2 -6 5 -11 q56 -88 118 -210 q62 -122 107 -231 q-39 -61 -76 -112 q-37 -51 -77 -97 q-5 -5 -8 -12 q-3 -7 -3 -15 q0 -18 12 -29 q11 -11 28 -11 l0 0 Z" /><glyph glyph-name="" unicode="z" d="M216 -6 q84 0 161 5 q78 5 144 17 q14 3 23 13 q10 11 10 26 q0 18 -11 29 q-11 11 -29 11 q-7 -1 -77 -10 q-70 -10 -207 -11 l-49 1 q83 102 173 210 q90 108 175 218 q9 11 9 25 q0 18 -11 29 q-11 11 -29 11 q-6 -1 -68 -7 q-63 -6 -170 -8 q-63 1 -94 4 q-31 4 -36 4 q-17 0 -28 -11 q-12 -11 -12 -29 q0 -15 10 -26 q10 -11 25 -13 q25 -4 60 -7 q34 -2 75 -2 q34 0 71 2 q37 2 74 5 q-81 -100 -176 -213 q-94 -113 -163 -205 q-5 -5 -7 -12 q-3 -6 -3 -14 q0 -16 11 -28 q11 -11 28 -12 q61 -2 121 -2 l0 0 Z" /><glyph glyph-name="" unicode="{" d="M377 -217 q74 0 144 22 q12 4 20 14 q8 11 8 25 q0 17 -11 28 q-11 12 -29 12 q-11 -1 -42 -10 q-31 -10 -90 -11 q-34 0 -53 21 q-20 21 -20 59 q1 29 6 92 q4 63 5 113 q1 48 -20 79 q-21 32 -73 52 q59 20 84 54 q26 34 25 84 q-2 51 -18 102 q-16 51 -18 104 q0 38 40 67 q41 28 124 45 q15 3 24 13 q9 11 9 26 q0 18 -11 29 q-11 11 -29 11 q-2 0 -4 0 q-2 0 -4 -1 q-109 -21 -169 -68 q-59 -48 -60 -122 q2 -60 18 -113 q16 -52 18 -93 q2 -35 -24 -56 q-26 -22 -100 -39 q-14 -3 -23 -14 q-9 -11 -9 -26 q0 -14 9 -24 q8 -11 21 -15 q70 -21 91 -40 q21 -20 19 -55 q-1 -54 -5 -110 q-5 -57 -6 -95 q1 -72 43 -116 q41 -43 110 -44 l0 0 Z" /><glyph glyph-name="" unicode="|" d="M279 -222 q18 0 29 11 q11 11 11 29 q0 50 -1 105 q-1 55 -1 114 q0 181 5 373 q5 193 13 364 q0 18 -11 29 q-11 11 -29 11 q-16 0 -27 -11 q-12 -11 -13 -27 q-9 -169 -13 -362 q-5 -192 -5 -377 q0 -59 1 -114 q0 -56 1 -106 q1 -17 13 -28 q11 -11 27 -11 l0 0 Z" /><glyph glyph-name="" unicode="}" d="M141 -214 l2 0 q112 5 172 41 q60 37 69 111 q1 11 2 25 q0 14 0 30 q0 26 -2 81 q-2 54 -2 71 q-1 53 24 78 q25 25 90 40 q14 3 23 14 q9 10 9 25 q0 17 -11 28 q-11 12 -28 12 q-70 2 -100 17 q-30 15 -29 41 q2 24 12 98 q11 74 12 134 q0 86 -39 134 q-38 47 -109 48 q-29 0 -64 -4 q-36 -4 -70 -12 q-14 -3 -23 -14 q-9 -11 -9 -26 q0 -17 12 -28 q11 -12 28 -12 q10 1 45 8 q35 7 81 8 q34 0 51 -24 q17 -24 17 -78 q-1 -58 -12 -129 q-10 -71 -12 -103 q0 -43 25 -71 q24 -29 76 -41 q-42 -21 -61 -55 q-18 -35 -18 -88 q0 -17 2 -71 q2 -54 2 -81 q0 -14 0 -25 q-1 -12 -2 -21 q-3 -38 -41 -58 q-38 -19 -123 -23 q-17 -1 -28 -12 q-11 -12 -11 -28 q0 -18 12 -29 q11 -11 28 -11 l0 0 Z" /><glyph glyph-name="" unicode="~" d="M90 184 q16 0 27 11 q11 10 13 25 q10 86 34 131 q24 44 57 44 q16 0 30 -19 q13 -19 29 -55 q24 -56 56 -91 q33 -35 82 -36 q76 1 114 68 q37 67 38 186 q0 18 -11 29 q-11 11 -29 11 q-17 0 -28 -11 q-12 -11 -12 -29 q-1 -86 -20 -130 q-19 -44 -52 -44 q-18 0 -32 20 q-15 19 -32 58 q-23 54 -55 88 q-31 34 -78 35 q-73 -1 -115 -66 q-43 -65 -55 -180 q-1 -2 -1 -5 q0 -17 12 -28 q11 -12 28 -12 l0 0 Z" /></font>
</defs>
</svg>
