<?xml version="1.0" standalone="no"?><!DOCTYPE svg PUBLIC "-//W3C//DTD SVG 1.1//EN" "http://www.w3.org/Graphics/SVG/1.1/DTD/svg11.dtd" ><svg xmlns="http://www.w3.org/2000/svg"><metadata></metadata><defs><font id="1.520;TAB;Comic Code Ligatures Bold" horiz-adv-x="620"><font-face font-family="Comic Code Ligatures" font-weight="700" font-stretch="normal" units-per-em="1000" panose-1="0 0 0 0 0 0 0 0 0 0" ascent="1136" descent="-331" x-height="0" bbox="-8 -254 651 876" underline-thickness="50" underline-position="-100" unicode-range="U+0000-007e" /><missing-glyph horiz-adv-x="620" d="M50 0 l520 0 l0 533 l-520 0 l0 -533 ZM100 50 l0 433 l420 0 l0 -433 l-420 0 Z" /><glyph glyph-name="" unicode="!" d="M300 227 q30 1 50 20 q19 20 20 50 q-7 71 -12 174 q-5 104 -5 182 q-1 30 -20 50 q-20 19 -50 20 q-29 -1 -49 -20 q-20 -20 -21 -49 q-1 -77 4 -179 q5 -101 13 -186 q4 -27 23 -44 q19 -17 47 -18 l0 0 ZM208 71 q2 -49 31 -73 q29 -23 67 -23 q16 0 26 2 q10 2 17 5 q29 13 46 35 q17 21 17 50 q-1 40 -31 64 q-31 24 -74 25 q-43 -1 -70 -26 q-28 -24 -29 -59 l0 0 Z" /><glyph glyph-name="" unicode="&quot;" d="M405 362 q28 1 47 18 q19 17 23 44 q8 74 16 154 q8 80 9 131 q-1 30 -20 50 q-20 19 -50 20 q-29 -1 -49 -20 q-20 -20 -21 -49 q-2 -58 -11 -139 q-9 -81 -14 -139 q1 -30 20 -50 q20 -19 50 -20 l0 0 ZM119 507 q0 -56 2 -98 q1 -28 21 -47 q20 -19 49 -20 q30 1 50 20 q19 20 20 50 q0 7 -1 37 q-1 30 -1 58 q0 41 1 86 q1 45 2 91 q-1 30 -20 50 q-20 19 -50 20 q-29 -1 -49 -20 q-20 -19 -21 -47 q-1 -44 -2 -90 q-1 -46 -1 -90 l0 0 Z" /><glyph glyph-name="" unicode="#" d="M154 -22 q27 1 45 17 q19 17 24 42 q4 20 8 46 q4 26 8 55 l83 5 q-4 -52 -9 -99 q-1 -6 -1 -9 q0 -3 0 -5 q1 -30 20 -50 q20 -19 50 -20 q28 1 47 18 q19 18 23 45 q3 23 6 55 q3 32 6 71 l34 0 q30 1 50 20 q19 20 20 50 q-1 30 -20 50 q-20 19 -50 20 l-24 0 q2 30 5 61 q3 31 5 61 l55 4 q28 3 46 22 q18 20 19 48 q-1 30 -20 50 q-20 19 -50 20 l-36 -3 q2 19 5 35 q3 17 5 32 q1 5 1 11 q1 5 1 8 q-1 30 -20 50 q-20 19 -50 20 q-27 -1 -46 -17 q-19 -17 -23 -43 q-4 -26 -7 -54 q-4 -27 -7 -54 l-77 -6 q3 40 5 71 q1 31 1 50 q-1 30 -20 50 q-20 19 -50 20 q-29 -1 -48 -20 q-20 -19 -22 -47 q-2 -35 -4 -69 q-2 -33 -4 -64 l-27 0 q-30 -1 -50 -20 q-19 -20 -20 -50 q1 -29 20 -49 q20 -20 49 -21 l17 0 q-6 -64 -12 -115 l-32 -2 q-28 -2 -47 -21 q-19 -20 -20 -49 q1 -30 20 -50 q20 -19 50 -20 l10 1 q-5 -37 -9 -56 q-3 -20 -3 -25 q1 -30 20 -50 q20 -19 50 -20 l0 0 ZM256 279 q4 29 7 57 q3 29 5 57 l75 6 q-6 -59 -10 -116 l-77 -4 Z" /><glyph glyph-name="" unicode="$" d="M264 -136 q24 1 41 16 q16 15 19 38 l8 67 q114 13 184 81 q71 68 73 169 q0 83 -52 129 q-51 47 -149 63 l17 134 q37 -7 55 -16 q19 -8 37 -9 q30 1 50 20 q19 20 20 50 q0 23 -13 40 q-12 17 -32 25 q-48 20 -102 28 l6 55 q1 3 1 7 q-1 25 -18 42 q-17 17 -42 18 q-24 -1 -41 -16 q-16 -15 -19 -39 l-7 -61 q-110 -10 -175 -71 q-65 -62 -66 -161 q0 -80 49 -121 q49 -42 143 -52 q-3 -25 -6 -49 l-16 -124 q-30 5 -53 16 q-24 11 -46 30 q-9 8 -21 12 q-11 4 -24 4 q-30 -1 -50 -20 q-19 -20 -20 -50 q0 -17 7 -30 q7 -14 19 -24 q37 -31 79 -50 q42 -19 92 -26 l-7 -57 q-1 -2 -1 -4 q0 -2 0 -4 q1 -25 18 -42 q17 -17 42 -18 l0 0 ZM199 473 q0 35 22 58 q21 23 63 31 l-15 -123 q-46 3 -59 11 q-13 8 -11 23 l0 0 ZM350 130 q3 26 7 52 q3 27 7 54 l7 53 q45 -7 62 -20 q17 -14 16 -34 q0 -37 -27 -65 q-26 -28 -72 -40 l0 0 Z" /><glyph glyph-name="" unicode="%" d="M98 -9 q16 0 29 8 q13 7 21 19 q56 84 196 274 q139 190 243 333 q5 8 9 17 q3 9 3 19 q-1 25 -18 42 q-17 17 -42 18 q-15 0 -28 -7 q-13 -7 -21 -18 q-60 -83 -207 -282 q-147 -199 -234 -329 q-11 -15 -11 -34 q1 -25 18 -42 q17 -17 42 -18 l0 0 ZM12 561 q1 -70 46 -114 q44 -45 114 -46 q71 1 111 45 q41 43 42 117 q-1 73 -46 117 q-45 44 -119 45 q-67 -2 -107 -47 q-40 -46 -41 -117 l0 0 ZM122 561 q0 25 10 39 q10 15 28 15 q27 0 41 -13 q14 -13 14 -39 q0 -28 -10 -40 q-10 -12 -33 -12 q-23 0 -37 13 q-13 14 -13 37 l0 0 ZM301 142 q1 -73 46 -118 q44 -45 116 -46 q77 0 115 43 q39 43 39 124 q-1 75 -47 120 q-46 45 -121 46 q-66 -2 -107 -48 q-40 -47 -41 -121 l0 0 ZM411 142 q0 27 10 43 q11 16 28 16 q29 0 43 -14 q15 -15 15 -42 q1 -36 -8 -47 q-8 -11 -36 -10 q-25 0 -38 14 q-14 14 -14 40 l0 0 Z" /><glyph glyph-name="" unicode="&amp;" d="M276 545 q0 39 36 39 q20 0 30 -11 q11 -10 11 -27 q1 -17 -14 -35 q-14 -18 -51 -42 q-12 40 -12 76 l0 0 ZM26 192 q2 -98 70 -155 q68 -58 184 -59 q41 0 78 11 q36 10 68 31 l44 -44 q10 -9 22 -14 q13 -6 27 -6 q30 1 50 20 q19 20 20 50 q0 15 -6 28 q-5 12 -15 22 q-12 12 -24 24 q-11 12 -22 23 q27 46 45 105 q17 60 24 132 q-1 30 -20 50 q-20 19 -50 20 q-28 -1 -48 -18 q-19 -18 -22 -46 q-4 -42 -9 -76 q-6 -34 -15 -60 q-52 65 -87 123 q77 47 115 93 q38 47 38 110 q-1 77 -50 122 q-48 45 -131 46 q-81 -1 -128 -49 q-47 -49 -48 -130 q0 -36 7 -73 q8 -37 22 -77 q-71 -45 -105 -92 q-34 -48 -34 -111 l0 0 ZM166 192 q-1 22 12 42 q12 20 44 44 q44 -75 110 -154 q-23 -6 -52 -6 q-58 0 -86 20 q-28 19 -28 54 l0 0 Z" /><glyph glyph-name="" unicode="&#39;" d="M298 347 q28 1 48 19 q19 18 22 46 q2 30 2 64 q0 26 -1 89 q-2 63 -2 91 q0 10 1 21 q0 12 0 18 q-1 30 -20 50 q-20 19 -50 20 q-28 -1 -48 -19 q-20 -19 -22 -47 q-1 -19 -1 -43 q0 -27 2 -91 q1 -64 1 -89 q0 -14 -1 -34 q-1 -20 -1 -25 q1 -30 20 -50 q20 -19 50 -20 l0 0 Z" /><glyph glyph-name="" unicode="(" d="M453 -223 q30 1 50 20 q19 20 20 50 q0 21 -11 38 q-11 16 -29 25 q-97 48 -145 135 q-47 87 -47 217 q0 132 51 242 q50 111 155 206 q11 10 17 23 q6 14 6 29 q-1 30 -20 50 q-20 19 -50 20 q-14 0 -26 -5 q-12 -5 -21 -13 q-127 -116 -189 -253 q-63 -137 -63 -299 q0 -169 68 -289 q68 -121 202 -188 q14 -8 32 -8 l0 0 Z" /><glyph glyph-name="" unicode=")" d="M174 -222 q6 0 12 1 q7 1 12 3 q119 44 193 168 q75 124 77 280 q-1 161 -69 313 q-68 151 -191 264 q-9 9 -21 14 q-12 5 -26 5 q-30 -1 -50 -20 q-19 -20 -20 -50 q0 -16 6 -29 q6 -13 17 -23 q101 -93 157 -218 q56 -124 57 -256 q-2 -110 -51 -198 q-50 -89 -124 -117 q-21 -7 -35 -25 q-14 -18 -14 -42 q1 -30 20 -50 q20 -19 50 -20 l0 0 Z" /><glyph glyph-name="" unicode="*" d="M193 256 q18 0 33 8 q15 8 24 22 q17 25 36 55 q18 29 35 58 q39 -52 69 -103 q9 -14 24 -23 q16 -8 34 -8 q30 1 50 20 q19 20 20 50 q0 11 -3 22 q-4 10 -10 18 q-19 26 -42 54 q-22 27 -48 54 q33 14 63 31 q29 17 53 35 q12 10 19 24 q7 14 7 31 q-1 30 -20 50 q-20 19 -50 20 q-13 0 -24 -4 q-11 -4 -20 -12 q-16 -13 -33 -25 q-16 -13 -33 -24 q0 23 0 47 q0 23 -2 40 q-4 28 -23 46 q-19 17 -47 18 q-30 -1 -50 -20 q-19 -20 -20 -50 q0 -11 3 -32 q3 -21 8 -50 l-66 46 q-18 14 -42 14 q-30 -1 -50 -20 q-19 -20 -20 -50 q0 -18 8 -33 q8 -15 22 -24 q24 -16 55 -33 q31 -17 63 -32 q-20 -27 -40 -56 q-21 -28 -39 -52 q-14 -18 -14 -42 q1 -30 20 -50 q20 -19 50 -20 l0 0 Z" /><glyph glyph-name="" unicode="+" d="M304 53 q30 1 50 20 q19 20 20 50 q0 6 0 23 q-1 17 -1 37 q0 53 2 107 q33 2 67 3 q34 1 68 1 q30 1 50 20 q19 20 20 50 q-1 30 -20 50 q-20 19 -50 20 q-28 0 -61 -1 q-33 -1 -68 -3 q3 63 6 104 q3 41 3 46 q-1 30 -20 50 q-20 19 -50 20 q-28 -1 -48 -19 q-19 -18 -22 -46 q-3 -39 -6 -80 q-2 -42 -4 -84 q-37 -4 -72 -7 q-34 -4 -66 -8 q-27 -4 -44 -23 q-17 -19 -18 -47 q1 -30 20 -50 q20 -19 50 -20 q5 0 38 4 q34 4 86 9 q-1 -51 -1 -96 q0 -33 1 -62 q1 -29 21 -48 q20 -19 49 -20 l0 0 Z" /><glyph glyph-name="" unicode="," d="M208 -227 q14 0 25 5 q12 5 22 13 q94 83 139 153 q46 70 46 134 q-1 58 -37 97 q-35 39 -91 41 q-55 -1 -91 -35 q-36 -33 -37 -86 q1 -40 23 -69 q22 -29 59 -40 q-20 -19 -46 -42 q-26 -23 -58 -49 q-11 -9 -18 -23 q-6 -13 -6 -29 q1 -30 20 -50 q20 -19 50 -20 l0 0 Z" /><glyph glyph-name="" unicode="-" d="M137 268 q53 0 163 8 q110 7 190 16 q27 4 45 23 q17 19 18 47 q-1 30 -20 50 q-20 19 -50 20 q-13 -1 -124 -11 q-111 -10 -222 -13 q-30 -1 -50 -20 q-19 -20 -20 -50 q1 -30 20 -50 q20 -19 50 -20 l0 0 Z" /><glyph glyph-name="" unicode="." d="M319 -24 q15 0 29 6 q41 18 66 50 q25 31 26 73 q-2 54 -41 89 q-40 34 -96 35 q-54 -1 -88 -35 q-34 -33 -35 -87 q0 -62 35 -96 q35 -34 104 -35 l0 0 Z" /><glyph glyph-name="" unicode="/" d="M88 -222 q20 0 35 10 q16 9 25 24 q73 120 161 286 q88 165 137 279 l33 82 q26 65 53 129 q27 64 60 135 q3 7 5 15 q2 8 2 16 q-1 30 -20 50 q-20 19 -50 20 q-22 0 -39 -12 q-16 -11 -25 -30 q-34 -73 -62 -139 q-28 -67 -54 -131 l-33 -81 q-46 -109 -131 -269 q-85 -160 -156 -277 q-5 -8 -8 -17 q-3 -9 -3 -20 q1 -30 20 -50 q20 -19 50 -20 l0 0 Z" /><glyph glyph-name="" unicode="0" d="M297 -12 q127 3 205 99 q79 97 81 252 q-3 163 -82 269 q-80 106 -206 110 q-111 -4 -183 -97 q-72 -94 -75 -236 q2 -178 71 -286 q70 -108 189 -111 l0 0 ZM177 385 q2 82 36 137 q35 54 82 56 q26 0 50 -14 q24 -14 44 -40 q-54 -48 -108 -107 q-54 -58 -99 -113 q-5 38 -5 81 l0 0 ZM218 188 q39 53 96 118 q58 65 119 122 q5 -20 7 -43 q3 -22 3 -46 q-1 -97 -41 -153 q-41 -57 -105 -58 q-23 0 -43 16 q-20 15 -36 44 l0 0 Z" /><glyph glyph-name="" unicode="1" d="M503 -11 q30 1 50 20 q19 20 20 50 q-1 27 -17 46 q-17 19 -43 23 q-46 8 -105 11 l0 21 q1 155 10 315 q9 160 10 180 q-1 30 -20 50 q-20 19 -50 20 q-24 0 -42 -14 q-18 -14 -25 -36 q-12 -29 -72 -66 q-60 -37 -146 -65 q-22 -6 -36 -24 q-15 -19 -15 -43 q1 -30 20 -50 q20 -19 50 -20 q10 0 20 3 q46 14 88 32 q42 18 77 38 q-4 -83 -6 -164 q-3 -82 -3 -156 l0 -20 q-32 -1 -60 -4 q-29 -2 -51 -6 q-26 -4 -43 -23 q-16 -19 -17 -46 q1 -30 20 -50 q20 -19 50 -20 q8 1 44 5 q35 4 117 5 q88 -1 125 -6 q37 -5 50 -6 l0 0 Z" /><glyph glyph-name="" unicode="2" d="M506 -19 q30 1 50 20 q19 20 20 50 q-1 28 -18 47 q-17 19 -44 23 q-69 8 -148 12 q-79 3 -152 3 l-9 0 q21 27 52 49 q31 22 75 43 q114 53 169 116 q54 63 54 146 q-3 96 -65 161 q-63 65 -156 68 q-51 0 -106 -14 q-56 -15 -119 -45 q-18 -9 -29 -26 q-12 -17 -12 -38 q1 -30 20 -50 q20 -19 50 -20 q8 0 16 2 q8 2 15 5 q51 25 90 35 q39 11 75 11 q33 -1 56 -26 q24 -25 25 -63 q1 -35 -32 -67 q-33 -33 -111 -69 q-101 -46 -160 -112 q-59 -65 -84 -158 q-3 -9 -3 -20 q1 -30 20 -50 q20 -19 50 -20 q22 0 54 1 q31 1 65 1 q150 -1 217 -7 q67 -7 75 -8 l0 0 Z" /><glyph glyph-name="" unicode="3" d="M277 -20 q124 2 201 64 q77 61 79 162 q0 56 -30 99 q-31 42 -91 71 q57 29 83 66 q25 37 25 87 q-2 83 -67 133 q-65 51 -163 52 q-48 0 -103 -13 q-56 -14 -107 -37 q-19 -8 -30 -25 q-12 -17 -12 -39 q1 -30 20 -50 q20 -19 50 -20 q8 0 16 2 q8 2 15 5 q39 18 78 28 q39 9 73 9 q40 -1 65 -14 q24 -14 25 -31 q3 -24 -42 -49 q-45 -24 -168 -59 q-23 -6 -37 -25 q-15 -18 -15 -43 l0 -1 q1 -30 20 -50 q20 -19 50 -20 q3 0 23 2 q19 1 33 1 q71 -1 110 -22 q39 -21 39 -57 q-1 -38 -37 -62 q-37 -23 -103 -24 q-36 0 -68 8 q-32 8 -67 27 q-15 9 -34 9 q-30 -1 -50 -20 q-19 -20 -20 -50 q0 -21 11 -37 q10 -16 27 -25 q98 -52 201 -52 l0 0 Z" /><glyph glyph-name="" unicode="4" d="M415 -18 q30 1 50 20 q19 20 20 50 q0 10 -2 48 q-2 37 -4 86 q16 1 32 1 q16 0 32 0 q30 1 50 20 q19 20 20 50 q-1 30 -20 50 q-20 19 -50 20 q-16 0 -33 0 q-17 0 -34 -1 q-2 60 -2 116 q0 37 1 83 q1 45 3 116 q-1 30 -20 50 q-20 19 -50 20 q-14 0 -27 -5 q-12 -6 -22 -15 q-99 -97 -176 -191 q-77 -94 -162 -222 q-5 -9 -9 -19 q-3 -10 -3 -21 q1 -30 20 -50 q20 -19 50 -20 q11 1 80 6 q69 5 180 9 l6 -134 q2 -28 22 -47 q19 -19 48 -20 l0 0 ZM200 318 q34 48 67 91 q33 43 68 83 q-1 -23 -1 -50 q0 -57 2 -119 q-35 -1 -70 -2 q-34 -1 -66 -3 l0 0 Z" /><glyph glyph-name="" unicode="5" d="M259 -16 q148 1 230 75 q83 73 84 205 q-2 97 -69 158 q-66 60 -172 62 q-28 0 -59 -6 q-31 -5 -63 -15 q2 21 5 46 q2 24 4 50 q61 5 127 7 q65 2 112 2 q30 1 50 20 q19 20 20 50 q-1 30 -20 50 q-20 19 -50 20 q-45 0 -109 -2 q-65 -2 -127 -6 q-9 17 -25 28 q-17 10 -38 10 q-28 -1 -48 -18 q-19 -18 -22 -46 q-3 -37 -14 -149 q-10 -111 -16 -168 l0 -7 q1 -30 20 -50 q20 -19 50 -20 q21 0 37 11 q43 25 86 39 q43 14 80 14 q46 -1 73 -22 q27 -22 28 -58 q0 -70 -42 -105 q-43 -35 -132 -35 q-26 0 -48 3 q-23 4 -46 11 q-11 4 -23 4 q-30 -1 -50 -20 q-19 -20 -20 -50 q0 -24 14 -42 q14 -19 36 -25 q32 -10 67 -16 q35 -5 70 -5 l0 0 Z" /><glyph glyph-name="" unicode="6" d="M322 -16 q114 2 190 68 q76 65 79 164 q-1 110 -72 172 q-70 63 -192 64 q-34 0 -66 -9 q-33 -9 -63 -27 q22 77 72 117 q49 41 122 41 q19 0 36 -2 q18 -3 37 -9 q11 -3 21 -3 q30 1 50 20 q19 20 20 50 q0 25 -15 43 q-14 19 -37 25 q-28 8 -56 12 q-29 4 -56 4 q-162 -2 -255 -115 q-93 -113 -95 -307 q0 -150 72 -229 q71 -78 208 -79 l0 0 ZM183 258 q33 28 68 41 q35 13 76 13 q65 0 95 -24 q29 -24 29 -72 q-1 -37 -37 -64 q-37 -27 -92 -28 q-68 -1 -101 30 q-33 31 -38 104 l0 0 Z" /><glyph glyph-name="" unicode="7" d="M234 -16 q25 0 44 15 q18 15 24 39 q37 143 106 285 q68 141 168 282 q6 8 10 19 q3 11 3 22 q-1 30 -20 50 q-20 19 -50 20 q-91 0 -202 -6 q-111 -5 -215 -15 q-28 -3 -45 -22 q-18 -20 -19 -48 q1 -30 20 -50 q20 -19 50 -20 q66 6 138 11 q71 5 141 7 q-77 -123 -132 -249 q-56 -126 -88 -251 q-3 -9 -3 -19 q1 -30 20 -50 q20 -19 50 -20 l0 0 Z" /><glyph glyph-name="" unicode="8" d="M195 520 q1 26 26 44 q26 18 65 19 q46 0 78 -14 q33 -13 51 -39 q-24 -33 -53 -62 q-30 -29 -60 -49 q-60 19 -84 43 q-24 25 -23 58 l0 0 ZM55 520 q0 -53 24 -95 q23 -43 74 -75 q-49 -36 -73 -78 q-24 -41 -24 -88 q1 -97 70 -150 q68 -53 189 -54 q121 1 194 57 q73 55 75 149 q0 66 -35 110 q-35 44 -109 73 q35 27 64 58 q29 30 51 62 q5 8 7 17 q3 9 3 19 q0 12 -4 24 q-29 82 -101 128 q-73 45 -174 46 q-97 -2 -163 -58 q-65 -57 -68 -145 l0 0 ZM196 184 q0 24 20 49 q20 25 60 48 l33 -9 q83 -19 110 -38 q27 -19 25 -48 q0 -29 -33 -47 q-33 -18 -96 -19 q-64 0 -92 16 q-28 16 -27 48 l0 0 Z" /><glyph glyph-name="" unicode="9" d="M243 -18 q17 0 30 7 q143 67 230 185 q86 118 88 252 q0 142 -72 217 q-71 74 -208 75 q-114 -3 -190 -73 q-76 -71 -79 -177 q1 -117 71 -182 q69 -65 193 -66 q15 0 30 1 q14 2 28 4 q-30 -34 -67 -61 q-37 -28 -81 -48 q-19 -8 -31 -25 q-12 -17 -12 -39 q1 -30 20 -50 q20 -19 50 -20 l0 0 ZM182 468 q1 46 38 77 q36 32 91 33 q76 1 108 -34 q33 -34 32 -118 q0 -6 -1 -13 q0 -7 -1 -13 q-27 -21 -61 -30 q-35 -10 -82 -10 q-66 0 -95 26 q-30 26 -29 82 l0 0 Z" /><glyph glyph-name="" unicode=":" d="M309 -24 q15 0 29 6 q41 18 66 50 q25 31 26 73 q-2 54 -41 89 q-40 34 -96 35 q-54 -1 -88 -35 q-34 -33 -35 -87 q0 -62 35 -96 q35 -34 104 -35 l0 0 ZM190 527 q0 -62 35 -96 q35 -34 104 -35 q15 0 29 6 q41 18 66 50 q25 31 26 73 q-2 54 -41 89 q-40 34 -96 35 q-54 -1 -88 -35 q-34 -33 -35 -87 l0 0 Z" /><glyph glyph-name="" unicode=";" d="M309 386 q15 0 29 6 q41 18 66 50 q25 31 26 73 q-2 54 -41 89 q-40 34 -96 35 q-54 -1 -88 -35 q-34 -33 -35 -87 q0 -62 35 -96 q35 -34 104 -35 l0 0 ZM148 -157 q1 -30 20 -50 q20 -19 50 -20 q14 0 25 5 q12 5 22 13 q94 83 139 153 q46 70 46 134 q-1 58 -37 97 q-35 39 -91 41 q-55 -1 -91 -35 q-36 -33 -37 -86 q1 -40 23 -69 q22 -29 59 -40 q-20 -19 -46 -42 q-26 -23 -58 -49 q-11 -9 -18 -23 q-6 -13 -6 -29 l0 0 Z" /><glyph glyph-name="" unicode="&lt;" d="M494 89 q30 1 50 20 q19 20 20 50 q0 20 -10 36 q-10 16 -26 25 q-66 38 -138 74 q-71 35 -144 67 q71 46 145 90 q74 43 139 77 q18 9 28 26 q11 16 11 37 q-1 30 -20 50 q-20 19 -50 20 q-18 0 -34 -9 q-96 -50 -205 -117 q-109 -67 -199 -130 q-14 -10 -23 -25 q-8 -15 -8 -33 l0 -2 q0 -24 13 -41 q13 -17 34 -25 q97 -37 195 -83 q97 -46 186 -97 q17 -9 36 -10 l0 0 Z" /><glyph glyph-name="" unicode="=" d="M110 144 q77 8 154 12 q76 4 141 4 q27 0 54 -1 q27 0 52 -2 q30 1 50 20 q19 20 20 50 q-1 28 -19 48 q-19 20 -47 22 q-50 3 -110 3 q-71 0 -148 -4 q-77 -4 -153 -12 q-28 -4 -45 -23 q-18 -19 -19 -47 q1 -30 20 -50 q20 -19 50 -20 l0 0 ZM48 506 q1 -30 20 -50 q20 -19 50 -20 q81 5 193 8 q112 4 198 5 q29 1 49 21 q19 20 20 49 q-1 30 -20 50 q-20 19 -50 20 q-89 -1 -201 -5 q-112 -3 -193 -8 q-28 -2 -47 -22 q-18 -20 -19 -48 l0 0 Z" /><glyph glyph-name="" unicode="&gt;" d="M131 85 q11 0 21 3 q10 3 18 9 l174 110 q50 31 101 63 q51 32 101 65 q15 9 24 25 q9 15 9 34 l0 2 q0 23 -13 41 q-12 17 -32 25 q-92 37 -189 84 q-97 47 -187 98 q-16 10 -36 10 q-30 -1 -50 -20 q-19 -20 -20 -50 q0 -20 10 -36 q10 -16 26 -25 q65 -38 134 -73 q70 -35 140 -67 l-93 -58 q-92 -57 -175 -111 q-15 -9 -24 -25 q-9 -15 -9 -34 q1 -30 20 -50 q20 -19 50 -20 l0 0 Z" /><glyph glyph-name="" unicode="?" d="M278 205 q30 1 50 20 q19 20 20 50 q0 5 -1 9 q0 2 6 6 q5 4 23 13 q86 41 134 92 q47 50 48 120 q-4 86 -77 146 q-74 60 -175 63 q-47 0 -100 -14 q-53 -14 -101 -38 q-18 -9 -29 -25 q-11 -17 -11 -38 q1 -30 20 -50 q20 -19 50 -20 q18 0 33 8 q36 18 71 28 q35 9 67 9 q42 -2 76 -24 q34 -22 36 -45 q1 -16 -26 -39 q-26 -23 -92 -55 q-45 -21 -69 -53 q-25 -32 -25 -75 q0 -6 1 -15 q1 -9 2 -16 q5 -25 24 -41 q19 -16 45 -16 l0 0 ZM207 69 q0 -44 28 -68 q27 -25 82 -25 q11 0 23 4 q32 12 52 35 q19 23 20 53 q-1 38 -32 63 q-32 24 -75 25 q-43 -1 -70 -25 q-27 -24 -28 -62 l0 0 Z" /><glyph glyph-name="" unicode="@" d="M356 -208 q60 0 120 23 q60 22 103 61 q11 10 17 23 q6 13 6 29 q-1 30 -20 50 q-20 19 -50 20 q-14 0 -26 -5 q-12 -5 -21 -13 q-24 -21 -59 -34 q-35 -14 -70 -14 q-111 -3 -157 70 q-46 73 -45 260 q1 173 50 269 q49 97 132 98 q48 0 79 -33 q31 -34 44 -101 q-14 7 -27 11 q-14 3 -28 3 q-93 -2 -150 -69 q-56 -68 -58 -178 q1 -97 49 -155 q48 -58 132 -60 q106 2 167 97 q62 95 63 253 q-1 175 -71 273 q-71 97 -200 99 q-151 -3 -236 -138 q-85 -135 -86 -369 q-1 -242 81 -356 q82 -115 261 -114 l0 0 ZM336 262 q1 52 19 79 q19 28 49 28 q17 0 32 -6 q15 -6 28 -19 q-8 -73 -32 -114 q-24 -42 -55 -43 q-20 0 -30 17 q-11 17 -11 58 l0 0 Z" /><glyph glyph-name="" unicode="A" d="M530 -36 q30 1 50 20 q19 20 20 50 q0 8 -2 15 q-31 158 -71 318 q-39 160 -84 307 q-6 22 -24 36 q-19 15 -43 15 q-19 0 -34 -9 q-16 -9 -25 -24 q-52 -80 -112 -190 q-59 -110 -110 -223 l-18 -2 q-28 -4 -45 -23 q-17 -19 -18 -47 q0 -17 8 -32 q7 -15 20 -24 q-14 -36 -23 -68 q-3 -10 -3 -22 q1 -30 20 -50 q20 -19 50 -20 q24 0 43 15 q18 14 25 36 q7 23 16 50 q10 27 22 56 q61 6 124 11 q64 5 115 8 q8 -37 15 -73 q8 -36 15 -72 q5 -25 24 -41 q19 -16 45 -17 l0 0 ZM257 295 q23 47 47 94 q24 47 49 92 q24 -87 45 -176 q-67 -3 -141 -10 l0 0 Z" /><glyph glyph-name="" unicode="B" d="M126 -49 q17 0 32 7 q14 7 23 20 q191 5 303 61 q111 56 114 169 q0 49 -29 86 q-28 37 -80 62 q31 25 48 60 q18 35 18 79 q-2 112 -87 167 q-86 55 -236 55 q-25 0 -55 -2 q-30 -1 -67 -5 q-28 -3 -45 -22 q-18 -20 -19 -48 q1 -91 5 -328 q4 -237 5 -291 q1 -30 20 -50 q20 -19 50 -20 l0 0 ZM187 576 q24 1 45 1 q96 0 140 -21 q44 -20 43 -61 q0 -36 -37 -59 q-37 -23 -108 -27 q-39 5 -80 6 l-3 161 ZM192 274 q118 -7 191 -28 q73 -20 75 -38 q-1 -32 -69 -57 q-68 -25 -194 -32 l-3 155 Z" /><glyph glyph-name="" unicode="C" d="M297 -22 q72 0 141 32 q70 31 140 95 q11 10 17 23 q6 13 6 29 q-1 30 -20 50 q-20 19 -50 20 q-14 0 -26 -5 q-12 -5 -21 -13 q-52 -48 -97 -69 q-45 -22 -90 -22 q-67 0 -99 37 q-32 38 -32 120 q1 131 55 206 q54 75 143 77 q17 0 35 -4 q18 -5 39 -14 l-2 -72 q1 -30 20 -50 q20 -19 50 -20 q29 1 49 20 q20 19 21 48 l7 217 q-1 30 -20 50 q-20 19 -50 20 q-29 -1 -48 -19 q-20 -19 -22 -48 q-41 12 -79 12 q-152 -3 -244 -118 q-92 -116 -94 -305 q1 -141 72 -218 q71 -78 199 -79 l0 0 Z" /><glyph glyph-name="" unicode="D" d="M197 -13 q181 3 289 105 q109 103 112 272 q-2 166 -115 257 q-113 91 -316 92 q-19 0 -45 -1 q-25 -2 -45 -4 q-28 -4 -45 -23 q-18 -19 -19 -47 q0 -21 10 -36 q9 -15 25 -24 q3 -66 5 -141 q2 -76 2 -141 q0 -77 -3 -132 q-3 -56 -6 -94 q0 -24 15 -42 q14 -19 36 -25 q24 -8 51 -12 q26 -4 49 -4 l0 0 ZM188 573 q135 -4 203 -57 q67 -53 67 -152 q-1 -109 -70 -172 q-69 -64 -191 -65 l-7 0 q2 38 4 81 q1 42 1 88 q0 64 -2 137 q-2 73 -5 140 l0 0 Z" /><glyph glyph-name="" unicode="E" d="M529 -11 q30 1 50 20 q19 20 20 50 q-1 30 -20 50 q-20 19 -50 20 q-72 0 -154 5 q-83 4 -145 11 q-26 2 -31 7 q-6 6 -5 23 q0 15 2 46 q2 31 5 70 q74 1 150 5 q75 5 135 14 q26 4 43 23 q17 18 18 46 q-1 30 -20 50 q-20 19 -50 20 q-6 0 -11 -1 q-68 -10 -128 -13 q-61 -3 -129 -3 l0 18 q0 66 -2 109 q43 7 88 10 q46 3 91 3 q47 0 85 -3 q37 -3 46 -3 q30 1 50 20 q19 20 20 50 q-1 28 -18 48 q-18 19 -46 22 q-66 6 -137 6 q-54 0 -109 -4 q-55 -5 -108 -13 q-18 14 -42 14 q-30 -1 -50 -20 q-19 -20 -20 -50 q1 -8 6 -40 q5 -31 6 -149 l-1 -33 q-12 -10 -19 -24 q-7 -14 -7 -31 q0 -14 6 -27 q5 -13 14 -22 q-3 -42 -5 -78 q-3 -36 -3 -60 q0 -76 42 -119 q41 -43 120 -51 q64 -7 151 -11 q86 -5 162 -5 l0 0 Z" /><glyph glyph-name="" unicode="F" d="M132 -15 q30 1 50 20 q19 20 20 50 q0 35 1 92 q1 57 3 117 q51 6 102 9 q51 3 98 3 q24 0 52 -1 q28 -2 34 -2 q30 1 50 20 q19 20 20 50 q-1 28 -19 48 q-18 19 -46 22 q-42 3 -91 3 q-46 0 -96 -3 q-50 -3 -101 -8 l0 15 q0 42 -1 76 q0 34 -2 62 q51 7 102 10 q52 4 102 4 q45 0 82 -3 q38 -3 45 -3 q30 1 50 20 q19 20 20 50 q-1 28 -18 48 q-18 19 -46 22 q-66 6 -133 6 q-59 0 -119 -4 q-61 -5 -121 -14 q-9 7 -20 11 q-11 4 -23 4 q-30 -1 -50 -20 q-19 -20 -20 -50 q1 -14 6 -54 q5 -39 6 -165 q0 -43 -3 -165 q-4 -122 -4 -200 q1 -30 20 -50 q20 -19 50 -20 l0 0 Z" /><glyph glyph-name="" unicode="G" d="M287 -6 q116 2 193 83 q76 82 91 215 q18 9 28 26 q11 16 11 37 q-1 30 -20 50 q-20 19 -50 20 q-22 -1 -98 -11 q-76 -10 -128 -18 q-26 -4 -43 -23 q-16 -19 -17 -46 q1 -30 20 -50 q20 -19 50 -20 q9 0 33 4 q24 4 70 11 q-15 -64 -51 -101 q-37 -36 -89 -37 q-60 0 -93 39 q-33 38 -33 110 q3 110 60 196 q56 85 124 90 q23 0 59 -10 q35 -11 65 -26 q15 -8 33 -8 q30 1 50 20 q19 20 20 50 q0 21 -11 38 q-10 16 -28 25 q-43 22 -96 36 q-53 14 -92 15 q-130 -6 -225 -131 q-94 -125 -99 -295 q2 -130 74 -209 q72 -78 192 -80 l0 0 Z" /><glyph glyph-name="" unicode="H" d="M514 -22 q30 1 50 20 q19 20 20 50 q-1 20 -8 172 q-8 152 -9 235 q2 74 14 127 q11 53 13 67 q-1 30 -20 50 q-20 19 -50 20 q-24 0 -43 -15 q-18 -14 -25 -37 q-13 -46 -21 -104 q-8 -57 -8 -108 l1 -64 q-20 1 -41 1 q-21 1 -44 1 q-39 0 -77 -1 q-38 -2 -72 -4 q0 64 -3 129 q-3 65 -8 124 q-3 28 -22 46 q-20 18 -48 19 q-30 -1 -50 -20 q-19 -20 -20 -50 q1 -12 6 -83 q4 -71 5 -168 q-2 -169 -14 -236 q-12 -67 -14 -85 q1 -30 20 -50 q20 -19 50 -20 q26 1 45 16 q18 15 23 39 q9 40 16 90 q6 50 10 109 q34 2 74 4 q39 1 79 1 q50 0 90 -2 q2 -54 5 -108 q3 -53 6 -99 q2 -28 22 -47 q20 -18 48 -19 l0 0 Z" /><glyph glyph-name="" unicode="I" d="M147 -26 q52 7 157 13 q106 6 172 7 q29 1 49 21 q19 20 20 49 q-1 30 -20 50 q-20 19 -50 20 q-43 0 -90 -2 q-7 64 -10 128 q-4 64 -4 123 q0 44 1 92 q2 47 4 97 l93 -5 q30 1 50 20 q19 20 20 50 q-1 28 -19 48 q-19 20 -47 22 q-62 4 -144 7 q-81 2 -175 4 q-30 -1 -50 -20 q-19 -20 -20 -50 q1 -29 20 -49 q20 -20 49 -21 l83 -2 q-2 -49 -4 -98 q-1 -50 -1 -95 q0 -60 4 -126 q3 -67 10 -133 q-29 -2 -56 -5 q-27 -2 -50 -5 q-27 -4 -44 -23 q-17 -19 -18 -47 q1 -30 20 -50 q20 -19 50 -20 l0 0 Z" /><glyph glyph-name="" unicode="J" d="M346 -64 q82 2 121 77 q38 74 38 191 q0 65 -6 158 q-5 92 -16 208 l52 1 q29 1 49 21 q19 20 20 49 q-1 30 -20 50 q-20 19 -50 20 q-61 0 -165 -5 q-104 -5 -183 -12 q-28 -3 -45 -22 q-18 -20 -19 -48 q1 -30 20 -50 q20 -19 50 -20 q30 2 69 5 q39 3 81 5 q11 -116 17 -207 q6 -91 6 -153 q0 -49 -8 -87 q-8 -38 -19 -40 q-53 3 -104 42 q-52 40 -56 81 q0 5 1 9 q1 4 5 8 q6 8 10 19 q4 11 4 23 q-1 30 -20 50 q-20 19 -50 20 q-15 0 -28 -6 q-14 -6 -23 -16 q-19 -21 -29 -49 q-10 -28 -10 -58 q5 -103 98 -181 q92 -79 210 -83 l0 0 Z" /><glyph glyph-name="" unicode="K" d="M148 -16 q30 1 50 20 q19 20 20 50 q-3 46 -6 96 q-3 50 -3 94 l0 21 l12 7 q61 -69 133 -145 q71 -75 133 -133 q9 -8 21 -13 q12 -5 26 -5 q30 1 50 20 q19 20 20 50 q0 15 -6 29 q-6 13 -17 23 q-56 52 -121 120 q-65 69 -122 134 q71 53 131 113 q61 60 108 125 q14 18 14 42 q-1 30 -20 50 q-20 19 -50 20 q-17 0 -32 -8 q-15 -7 -25 -21 q-49 -67 -112 -127 q-63 -59 -138 -112 q6 94 12 150 q6 56 6 66 q-1 30 -20 50 q-20 19 -50 20 q-28 -1 -47 -18 q-19 -18 -23 -45 q-10 -92 -16 -206 q-7 -115 -7 -207 q0 -38 3 -91 q2 -54 6 -104 q3 -28 22 -46 q20 -18 48 -19 l0 0 Z" /><glyph glyph-name="" unicode="L" d="M156 -6 q106 0 205 10 q98 10 185 29 q25 6 40 24 q16 19 16 45 q-1 30 -20 50 q-20 19 -50 20 q-16 -1 -81 -15 q-66 -13 -223 -22 q1 30 1 65 q0 34 0 72 q0 108 -2 206 q-2 98 -6 165 q-2 28 -22 47 q-20 18 -48 19 q-30 -1 -50 -20 q-19 -20 -20 -50 q1 -5 4 -101 q4 -97 4 -266 q0 -56 -1 -110 q0 -54 -2 -98 q1 -30 20 -50 q20 -19 50 -20 l0 0 Z" /><glyph glyph-name="" unicode="M" d="M71 -16 q29 1 49 20 q19 19 21 47 l20 349 q22 -46 41 -87 q18 -41 31 -75 q7 -21 25 -34 q17 -14 41 -14 q23 0 41 13 q17 12 25 33 q13 32 33 79 q21 46 45 99 q11 -97 19 -187 q9 -91 15 -167 q3 -28 22 -46 q20 -18 48 -19 q30 1 50 20 q19 20 20 50 q-2 43 -24 246 q-21 203 -37 343 q-4 27 -23 45 q-19 17 -47 18 q-23 0 -40 -12 q-17 -12 -25 -32 q-22 -51 -59 -135 q-37 -83 -63 -141 q-18 39 -52 109 q-35 71 -80 159 q-9 18 -26 30 q-17 11 -38 11 q-29 -1 -49 -20 q-20 -19 -21 -48 q-2 -52 -16 -272 q-13 -221 -16 -312 q1 -30 20 -50 q20 -19 50 -20 l0 0 Z" /><glyph glyph-name="" unicode="N" d="M103 -23 q29 1 49 20 q19 19 21 47 q2 53 5 145 q2 92 3 195 q68 -107 139 -205 q70 -97 132 -169 q10 -11 24 -18 q13 -6 29 -6 q28 1 48 19 q20 19 22 47 q5 69 7 151 q2 83 2 169 q0 86 -2 160 q-2 74 -7 127 q-3 28 -22 46 q-20 18 -48 19 q-30 -1 -50 -20 q-19 -20 -20 -50 q1 -7 5 -75 q3 -67 4 -207 q0 -63 -1 -124 q-73 101 -145 213 q-71 112 -127 216 q-9 17 -25 27 q-16 11 -37 11 q-30 -1 -50 -20 q-19 -20 -20 -50 q1 -26 1 -69 q1 -44 1 -99 q0 -184 -4 -303 q-3 -119 -4 -127 q1 -30 20 -50 q20 -19 50 -20 l0 0 Z" /><glyph glyph-name="" unicode="O" d="M288 -10 q139 3 222 126 q83 122 85 323 q-2 126 -76 198 q-75 73 -204 74 q-129 -5 -209 -132 q-81 -127 -83 -323 q1 -124 72 -194 q70 -71 193 -72 l0 0 ZM163 256 q2 133 46 222 q45 89 106 93 q70 0 105 -33 q35 -34 35 -99 q-2 -141 -48 -224 q-46 -83 -119 -85 q-64 0 -94 31 q-31 31 -31 95 l0 0 Z" /><glyph glyph-name="" unicode="P" d="M149 -16 q30 1 50 20 q19 20 20 50 q-1 29 -2 69 q-1 40 -2 70 l12 0 q156 2 253 72 q97 69 100 185 q-4 114 -101 189 q-98 74 -243 77 q-29 0 -57 -3 q-28 -3 -53 -10 q-23 -6 -38 -24 q-15 -18 -16 -42 q-1 -31 -1 -65 q-1 -34 -1 -72 q0 -90 3 -221 q3 -130 6 -226 q1 -29 21 -49 q20 -19 49 -20 l0 0 ZM210 500 q0 41 1 75 q12 1 25 1 q85 -2 143 -39 q59 -37 61 -87 q-1 -51 -59 -83 q-58 -33 -154 -34 l-15 0 q-2 83 -2 167 l0 0 Z" /><glyph glyph-name="" unicode="Q" d="M302 -18 q47 1 90 22 q38 -48 75 -86 q37 -39 70 -66 q9 -7 20 -11 q11 -4 24 -4 q30 1 50 20 q19 20 20 50 q0 17 -7 32 q-8 14 -20 23 q-29 23 -61 57 q-32 34 -65 76 q46 59 72 137 q26 77 27 162 q-2 144 -79 234 q-76 90 -199 93 q-132 -3 -213 -110 q-81 -106 -83 -278 q1 -168 73 -259 q72 -91 206 -92 l0 0 ZM163 333 q1 113 45 180 q43 66 111 68 q62 -1 99 -51 q38 -51 39 -136 q0 -46 -13 -92 q-12 -45 -33 -84 q-14 22 -28 45 q-14 23 -27 46 q-9 17 -25 27 q-17 10 -37 10 q-30 -1 -50 -20 q-19 -20 -20 -50 q0 -20 9 -35 q34 -60 73 -119 l-4 0 q-70 -1 -104 50 q-35 51 -35 161 l0 0 Z" /><glyph glyph-name="" unicode="R" d="M537 -33 q30 1 50 20 q19 20 20 50 q0 17 -8 32 q-7 14 -20 24 q-47 35 -100 71 q-53 36 -110 70 q101 29 154 84 q52 55 52 137 q-1 115 -109 180 q-108 64 -318 78 q-31 0 -51 -17 q-20 -16 -24 -46 q-18 -152 -29 -304 q-11 -152 -11 -257 q0 -11 1 -22 q0 -10 0 -19 q1 -29 21 -48 q20 -19 49 -20 q30 1 50 20 q19 20 20 50 q0 8 0 18 q-1 10 -1 21 q0 40 3 94 q84 -44 166 -96 q82 -53 152 -105 q9 -7 20 -11 q11 -4 23 -4 l0 0 ZM185 347 q5 60 10 116 q5 57 10 104 q115 -14 173 -43 q57 -29 57 -69 q1 -43 -59 -72 q-60 -28 -191 -36 l0 0 Z" /><glyph glyph-name="" unicode="S" d="M293 -17 q129 2 211 72 q82 70 85 180 q-1 100 -76 148 q-76 48 -218 54 q-63 3 -81 11 q-17 9 -15 25 q0 44 34 68 q33 25 98 25 q83 -2 113 -15 q30 -13 53 -15 q30 1 50 20 q19 20 20 50 q0 23 -13 40 q-12 17 -32 25 q-43 18 -90 27 q-48 8 -101 8 q-123 -2 -197 -64 q-73 -63 -75 -169 q0 -87 59 -129 q59 -42 171 -47 q95 -4 128 -20 q34 -15 32 -42 q-1 -48 -43 -80 q-42 -31 -113 -32 q-56 0 -93 11 q-38 12 -70 39 q-9 8 -21 12 q-11 4 -24 4 q-30 -1 -50 -20 q-19 -20 -20 -50 q0 -17 7 -30 q7 -14 19 -24 q51 -43 112 -62 q61 -20 140 -20 l0 0 Z" /><glyph glyph-name="" unicode="T" d="M320 -10 q30 1 50 20 q19 20 20 50 q0 95 -5 233 q-5 137 -13 262 q47 2 91 4 q45 3 86 6 q28 3 46 22 q18 20 19 48 q-1 30 -20 50 q-20 19 -50 20 q-10 -1 -104 -6 q-94 -6 -259 -7 q-28 0 -55 0 q-27 0 -54 1 q-30 -1 -50 -20 q-19 -20 -20 -50 q1 -29 20 -49 q19 -20 48 -21 q27 -1 55 -1 q28 0 56 0 l51 0 q8 -123 13 -261 q5 -137 5 -231 q1 -30 20 -50 q20 -19 50 -20 l0 0 Z" /><glyph glyph-name="" unicode="U" d="M308 -18 q140 1 215 82 q75 82 76 234 q0 76 -7 172 q-8 97 -20 184 q-4 26 -22 43 q-19 17 -47 18 q-30 -1 -50 -20 q-19 -20 -20 -50 q2 -15 13 -111 q11 -96 13 -236 q1 -94 -36 -136 q-36 -41 -115 -40 q-71 0 -105 33 q-34 33 -34 102 q1 112 10 233 q9 120 10 141 q-1 30 -20 50 q-20 19 -50 20 q-28 -1 -48 -19 q-19 -18 -22 -46 q-9 -113 -14 -213 q-6 -100 -6 -166 q1 -129 75 -201 q74 -73 204 -74 l0 0 Z" /><glyph glyph-name="" unicode="V" d="M295 -20 q24 0 42 14 q18 14 25 36 q56 172 120 330 q63 159 122 275 q8 15 8 33 q-1 30 -20 50 q-20 19 -50 20 q-21 0 -38 -11 q-16 -11 -25 -29 q-46 -91 -96 -210 q-49 -119 -97 -251 q-44 106 -83 219 q-38 113 -62 207 q-6 24 -24 40 q-19 15 -44 15 q-30 -1 -50 -20 q-19 -20 -20 -50 q0 -9 2 -18 q37 -145 101 -317 q64 -173 126 -294 q9 -18 26 -28 q16 -11 37 -11 l0 0 Z" /><glyph glyph-name="" unicode="W" d="M194 -20 q25 0 44 15 q18 15 24 39 q8 33 21 81 q13 48 39 142 q9 -28 33 -104 q24 -76 35 -111 q6 -22 25 -36 q18 -15 42 -15 q27 1 46 17 q19 17 23 43 q19 113 59 328 q39 215 44 268 q-1 30 -20 50 q-20 19 -50 20 q-28 -1 -46 -18 q-19 -17 -23 -43 q-11 -79 -26 -161 q-15 -83 -30 -164 q-15 48 -27 91 q-12 43 -20 74 q-5 24 -23 39 q-19 15 -45 16 q-26 0 -45 -16 q-18 -15 -24 -40 q-10 -43 -22 -89 q-11 -46 -25 -95 q-22 92 -40 178 q-19 86 -31 157 q-4 26 -23 43 q-19 16 -46 17 q-30 -1 -50 -20 q-19 -20 -20 -50 q0 -6 1 -12 q15 -90 47 -229 q31 -139 85 -360 q5 -24 24 -39 q18 -15 44 -16 l0 0 Z" /><glyph glyph-name="" unicode="X" d="M67 -23 q17 0 30 7 q14 7 24 18 q44 52 89 108 q45 57 86 112 q45 -57 96 -118 q50 -62 87 -104 q10 -11 24 -18 q13 -6 29 -6 q30 1 50 20 q19 20 20 50 q0 14 -5 25 q-5 12 -13 21 q-43 49 -100 120 q-58 71 -102 129 q51 71 106 143 q55 72 100 127 q8 9 12 21 q4 11 4 24 q-1 30 -20 50 q-20 19 -50 20 q-17 0 -31 -7 q-14 -7 -24 -19 q-39 -48 -87 -111 q-48 -62 -95 -127 q-71 111 -115 213 q-8 20 -25 32 q-18 12 -40 12 q-30 -1 -50 -20 q-19 -20 -20 -50 q0 -15 6 -29 q29 -67 68 -137 q40 -71 89 -142 q-45 -61 -95 -125 q-51 -65 -101 -123 q-8 -10 -13 -21 q-4 -12 -4 -25 q1 -30 20 -50 q20 -19 50 -20 l0 0 Z" /><glyph glyph-name="" unicode="Y" d="M312 -21 q29 1 49 20 q20 19 21 47 q2 46 5 101 q2 54 4 109 q62 91 116 185 q54 95 95 179 q8 14 8 32 q-1 30 -20 50 q-20 19 -50 20 q-21 0 -38 -11 q-16 -11 -25 -29 q-36 -74 -76 -144 q-39 -70 -80 -133 q-44 66 -93 138 q-49 72 -95 135 q-10 13 -25 21 q-15 8 -32 8 q-30 -1 -50 -20 q-19 -20 -20 -50 q0 -24 14 -42 q59 -80 121 -172 q62 -92 110 -167 q-2 -52 -5 -110 q-2 -59 -4 -97 q1 -30 20 -50 q20 -19 50 -20 l0 0 Z" /><glyph glyph-name="" unicode="Z" d="M84 -9 q8 0 52 3 q43 3 179 3 q57 0 115 1 q57 1 111 5 q28 3 46 22 q18 20 19 48 q-1 30 -20 50 q-20 19 -50 20 q-8 0 -55 -3 q-46 -3 -166 -3 l-98 0 q92 138 183 257 q91 119 169 201 q9 9 14 21 q5 13 5 27 q-1 30 -20 50 q-20 19 -50 20 q-14 -1 -105 -6 q-92 -6 -208 -7 q-52 0 -82 2 q-30 2 -41 2 q-30 -1 -50 -20 q-19 -20 -20 -50 q1 -28 19 -48 q18 -19 46 -22 q24 -2 57 -3 q33 -1 71 -1 q35 0 74 1 q38 1 77 2 q-80 -99 -165 -218 q-86 -119 -166 -246 q-11 -17 -11 -38 q1 -30 20 -50 q20 -19 50 -20 l0 0 Z" /><glyph glyph-name="" unicode="[" d="M233 -206 l237 -6 q30 1 50 20 q19 20 20 50 q-1 29 -20 49 q-19 20 -48 21 l-167 4 q-1 162 -5 380 q-4 219 -7 362 q38 3 81 6 q42 3 80 3 q30 1 50 20 q19 20 20 50 q-1 30 -20 50 q-20 19 -50 20 q-64 0 -132 -6 q-69 -6 -109 -11 q-27 -4 -44 -23 q-17 -19 -18 -47 q6 -204 10 -476 q4 -273 4 -396 q1 -29 20 -49 q19 -20 48 -21 l0 0 Z" /><glyph glyph-name="" unicode="\" d="M525 -221 q30 1 50 20 q19 20 20 50 q0 14 -5 26 q-64 168 -192 436 q-129 267 -244 475 q-9 17 -25 27 q-17 10 -37 10 q-30 -1 -50 -20 q-19 -20 -20 -50 q0 -10 3 -19 q2 -8 7 -16 q113 -203 239 -466 q125 -263 188 -426 q7 -21 25 -34 q17 -13 41 -13 l0 0 Z" /><glyph glyph-name="" unicode="]" d="M160 -217 q40 0 113 3 q73 3 155 10 q28 3 46 22 q18 20 19 48 q-2 97 -19 419 q-17 321 -29 460 q-3 28 -22 46 q-20 18 -48 19 q-50 0 -129 -8 q-79 -8 -130 -17 q-26 -4 -42 -23 q-16 -19 -17 -46 q1 -30 20 -50 q20 -19 50 -20 q4 0 7 0 q3 0 7 1 q35 7 79 12 q44 5 90 8 q12 -159 23 -368 q11 -208 18 -368 q-62 -4 -112 -6 q-50 -2 -79 -2 q-30 -1 -50 -20 q-19 -20 -20 -50 q1 -30 20 -50 q20 -19 50 -20 l0 0 Z" /><glyph glyph-name="" unicode="^" d="M525 266 q30 1 50 20 q19 20 20 50 q0 20 -10 36 q-51 90 -98 187 q-47 97 -84 189 q-8 20 -25 32 q-18 13 -41 13 l-2 0 q-19 0 -34 -9 q-16 -9 -25 -24 q-33 -50 -65 -101 q-32 -51 -63 -101 l-110 -174 q-6 -8 -9 -18 q-3 -10 -3 -21 q1 -30 20 -50 q20 -19 50 -20 q19 0 34 9 q16 9 25 24 q54 83 111 175 l58 93 q32 -70 67 -140 q35 -69 73 -134 q9 -16 25 -26 q16 -10 36 -10 l0 0 Z" /><glyph glyph-name="" unicode="_" d="M90 -254 q68 1 207 10 q140 8 239 18 q28 4 46 23 q17 19 18 47 q-1 30 -20 50 q-20 19 -50 20 q-26 -2 -167 -13 q-142 -12 -273 -15 q-30 -1 -50 -20 q-19 -20 -20 -50 q1 -30 20 -50 q20 -19 50 -20 l0 0 Z" /><glyph glyph-name="" unicode="`" d="M402 585 q30 1 50 20 q19 20 20 50 q0 17 -8 32 q-7 15 -21 25 l-201 150 q-8 7 -19 10 q-11 4 -23 4 q-30 -1 -50 -20 q-19 -20 -20 -50 q0 -17 8 -32 q7 -15 21 -25 l201 -150 q8 -7 19 -10 q11 -4 23 -4 l0 0 Z" /><glyph glyph-name="" unicode="a" d="M502 -49 q30 1 50 20 q19 20 20 50 q-5 75 -15 174 q-11 99 -18 153 q-14 116 -69 176 q-54 60 -153 60 q-45 0 -93 -13 q-48 -13 -94 -37 q-18 -9 -28 -26 q-11 -16 -11 -37 q1 -30 20 -50 q20 -19 50 -20 q19 0 34 9 q33 17 63 26 q31 8 59 8 q38 1 57 -23 q19 -24 27 -89 q-23 6 -47 9 q-24 3 -47 3 q-120 -1 -191 -50 q-70 -50 -72 -143 q1 -82 59 -128 q58 -46 156 -47 q45 0 89 15 q44 15 83 43 l1 -17 q2 -28 22 -47 q20 -18 48 -19 l0 0 ZM184 156 q0 32 29 50 q29 18 94 18 q28 0 55 -3 q27 -4 53 -10 l4 -44 q-32 -29 -74 -45 q-42 -16 -86 -16 q-41 0 -58 13 q-17 13 -17 37 l0 0 Z" /><glyph glyph-name="" unicode="b" d="M301 -25 q124 2 199 80 q76 78 78 205 q-2 142 -69 230 q-67 87 -178 90 q-60 0 -119 -47 q1 117 9 159 q8 42 9 51 q-1 30 -20 50 q-20 19 -50 20 q-25 0 -43 -15 q-19 -15 -25 -38 q-20 -76 -20 -229 q1 -50 5 -192 q3 -141 4 -180 q-2 -69 -15 -87 q-13 -19 -15 -46 q1 -30 20 -50 q20 -19 50 -20 q19 0 34 9 q16 9 25 24 l9 15 q27 -14 55 -21 q29 -8 57 -8 l0 0 ZM216 376 q66 64 115 64 q47 -1 77 -49 q29 -49 30 -131 q-1 -68 -37 -106 q-36 -38 -100 -39 q-20 0 -41 4 q-21 4 -40 11 l1 29 q0 17 -2 80 q-1 64 -3 137 l0 0 Z" /><glyph glyph-name="" unicode="c" d="M302 -23 q75 0 143 29 q67 30 122 86 q9 10 15 22 q5 13 5 27 q-1 30 -20 50 q-20 19 -50 20 q-15 0 -28 -6 q-12 -5 -22 -15 q-36 -37 -77 -55 q-41 -18 -88 -18 q-56 0 -86 33 q-30 33 -30 97 q2 82 45 139 q43 57 101 59 q28 0 59 -12 q31 -11 68 -36 q9 -5 19 -9 q10 -3 21 -3 q30 1 50 20 q19 20 20 50 q0 19 -9 34 q-9 15 -23 25 q-53 35 -104 53 q-52 18 -101 18 q-120 -4 -201 -101 q-82 -96 -85 -237 q2 -123 70 -196 q69 -72 186 -74 l0 0 Z" /><glyph glyph-name="" unicode="d" d="M274 -21 q47 0 89 17 q42 17 81 51 q8 -22 18 -40 q10 -18 21 -31 q10 -11 24 -18 q13 -7 30 -7 q30 1 50 20 q19 20 20 50 q0 13 -4 25 q-5 11 -13 21 q-8 10 -16 32 q-9 22 -14 48 q-4 23 -8 89 q-4 66 -4 115 q2 145 19 264 q17 119 19 140 q-1 30 -20 50 q-20 19 -50 20 q-27 -1 -46 -17 q-19 -17 -23 -42 q-8 -45 -15 -101 q-8 -56 -13 -117 q-26 14 -53 21 q-27 7 -53 7 q-120 -3 -195 -104 q-75 -100 -77 -258 q2 -105 66 -169 q63 -64 167 -66 l0 0 ZM181 214 q1 99 39 159 q37 61 93 63 q24 0 49 -7 q25 -7 47 -19 q-1 -16 -1 -30 q0 -15 0 -29 q0 -35 3 -82 q2 -47 5 -88 q-34 -33 -68 -47 q-35 -15 -74 -15 q-44 0 -68 25 q-25 25 -25 70 l0 0 Z" /><glyph glyph-name="" unicode="e" d="M316 -24 q67 0 127 24 q60 24 117 74 q11 10 18 24 q7 13 7 29 q-1 30 -20 50 q-20 19 -50 20 q-14 0 -25 -5 q-12 -4 -21 -12 q-39 -34 -75 -49 q-37 -15 -78 -15 q-41 0 -67 12 q-26 11 -40 36 q79 27 148 57 q69 29 114 56 q47 28 69 59 q22 30 22 73 q-3 74 -68 124 q-65 49 -154 51 q-128 -3 -208 -91 q-80 -89 -83 -230 q1 -137 70 -212 q69 -74 197 -75 l0 0 ZM191 286 q7 73 47 115 q40 42 102 43 q29 -1 53 -14 q24 -14 25 -30 q0 -6 -4 -11 q-5 -6 -15 -12 q-35 -21 -89 -44 q-55 -24 -119 -47 l0 0 Z" /><glyph glyph-name="" unicode="f" d="M244 -122 q23 0 41 13 q17 12 25 33 q17 45 26 99 q9 53 9 111 q0 27 -2 105 q-1 78 -3 160 q54 4 105 10 q51 7 97 16 q25 5 41 24 q16 18 17 45 q-1 30 -20 50 q-20 19 -50 20 q-10 -1 -58 -9 q-48 -9 -134 -16 q0 86 21 113 q21 27 79 25 q35 -1 56 -5 q21 -4 33 -5 q30 1 50 20 q19 20 20 50 q-1 26 -16 45 q-15 18 -39 23 q-24 6 -51 9 q-27 3 -53 3 q-124 1 -182 -68 q-58 -69 -58 -216 l-15 0 q-22 0 -45 1 q-22 0 -45 1 q-30 -1 -50 -20 q-19 -20 -20 -50 q1 -29 20 -48 q19 -20 47 -22 q22 -1 45 -1 q23 -1 48 -1 l17 0 q2 -81 3 -157 q2 -76 2 -102 q-2 -90 -15 -127 q-14 -37 -16 -59 q1 -30 20 -50 q20 -19 50 -20 l0 0 Z" /><glyph glyph-name="" unicode="g" d="M286 -223 q139 0 210 79 q71 79 71 234 q-1 66 -6 182 q-5 115 -6 153 q1 35 7 55 q6 20 7 36 q-1 30 -20 50 q-20 19 -50 20 q-24 0 -42 -14 q-19 -14 -25 -36 l-2 -6 q-30 23 -61 34 q-30 12 -61 12 q-118 -3 -191 -88 q-74 -86 -76 -221 q1 -118 61 -182 q60 -64 171 -65 q43 0 81 15 q38 14 73 44 q-1 -90 -34 -127 q-33 -36 -107 -35 q-43 0 -79 11 q-36 12 -63 32 q-9 8 -20 12 q-11 4 -24 4 q-30 -1 -50 -20 q-19 -20 -20 -50 q0 -17 7 -31 q7 -14 20 -24 q45 -35 104 -55 q59 -19 125 -19 l0 0 ZM181 267 q1 76 36 122 q35 46 91 47 q25 0 52 -12 q27 -13 56 -38 l6 -145 q-36 -43 -71 -62 q-36 -19 -78 -19 q-50 -1 -71 24 q-22 24 -21 83 l0 0 Z" /><glyph glyph-name="" unicode="h" d="M472 -59 q28 1 48 19 q19 17 22 45 q8 82 12 160 q4 79 4 157 q0 114 -42 182 q-43 68 -127 70 q-40 0 -82 -26 q-43 -27 -85 -75 q-2 56 -6 127 q-4 71 -11 160 q-3 28 -22 46 q-20 18 -48 19 q-30 -1 -50 -20 q-19 -20 -20 -50 q1 -17 10 -146 q8 -129 9 -238 q-1 -97 -7 -201 q-6 -103 -7 -121 q1 -30 20 -50 q20 -19 50 -20 q28 1 48 19 q20 19 22 47 q4 64 7 126 q3 62 5 113 q46 68 92 108 q46 41 75 42 q10 0 19 -27 q9 -28 10 -85 q-1 -131 -8 -211 q-7 -80 -8 -100 q1 -30 20 -50 q20 -19 50 -20 l0 0 Z" /><glyph glyph-name="" unicode="i" d="M125 -10 q81 0 186 7 q104 6 191 16 q28 4 45 23 q17 19 18 47 q-1 30 -20 50 q-20 19 -50 20 q-5 0 -35 -3 q-29 -3 -77 -7 q-2 30 -2 63 q1 67 6 153 q4 86 5 107 q0 41 -24 66 q-24 24 -65 25 q-36 0 -84 -4 q-47 -4 -92 -11 q-26 -4 -43 -23 q-16 -19 -17 -46 q1 -30 20 -50 q20 -19 50 -20 q12 1 53 6 q41 5 55 6 q4 0 4 -5 q-2 -40 -5 -94 q-3 -54 -3 -110 q0 -37 2 -73 q-57 -3 -118 -3 q-30 -1 -50 -20 q-19 -20 -20 -50 q1 -30 20 -50 q20 -19 50 -20 l0 0 ZM209 735 q1 -60 24 -85 q23 -25 57 -24 q39 2 71 38 q31 36 33 81 q-1 39 -26 65 q-26 26 -65 27 q-44 -1 -69 -29 q-25 -28 -25 -73 l0 0 Z" /><glyph glyph-name="" unicode="j" d="M280 -221 q93 3 149 85 q57 82 58 203 q0 58 -5 181 q-5 122 -12 197 q-5 54 -30 82 q-25 28 -78 34 q-19 3 -43 4 q-24 1 -51 1 q-29 0 -58 -1 q-28 -2 -53 -4 q-27 -4 -45 -23 q-17 -19 -18 -47 q1 -30 21 -50 q20 -19 49 -20 q7 0 33 3 q25 2 71 2 q30 0 53 -1 q9 -2 11 -11 q6 -77 11 -186 q4 -109 4 -161 q-1 -63 -21 -105 q-21 -41 -52 -43 q-33 -1 -59 20 q-26 21 -53 80 q-8 19 -25 31 q-17 12 -39 12 q-30 -1 -50 -20 q-19 -20 -20 -50 q0 -16 7 -30 q43 -95 101 -139 q59 -45 144 -44 l0 0 ZM254 731 q-1 -47 20 -80 q21 -33 70 -34 q48 1 70 36 q21 35 21 85 q-1 41 -25 68 q-24 26 -65 27 q-42 -1 -66 -30 q-25 -30 -25 -72 l0 0 Z" /><glyph glyph-name="" unicode="k" d="M124 -22 q28 1 47 19 q19 17 23 45 q3 29 6 62 q3 32 5 67 q32 18 62 38 q48 -45 101 -98 q53 -54 99 -105 q9 -11 23 -18 q13 -6 29 -6 q30 1 50 20 q19 20 20 50 q0 14 -5 25 q-5 12 -13 22 q-38 42 -87 93 q-50 51 -100 99 q51 41 96 85 q44 44 81 91 q7 9 11 20 q4 11 4 24 q-1 30 -20 50 q-20 19 -50 20 q-17 0 -32 -7 q-14 -8 -23 -20 q-47 -59 -106 -113 q-60 -53 -131 -100 q2 43 2 82 q1 39 1 71 q0 50 -3 121 q-2 71 -6 137 q-2 28 -22 47 q-20 18 -48 19 q-30 -1 -50 -20 q-19 -20 -20 -50 q1 -12 5 -94 q3 -83 4 -160 q-1 -173 -11 -298 q-11 -125 -12 -148 q1 -30 20 -50 q20 -19 50 -20 l0 0 Z" /><glyph glyph-name="" unicode="l" d="M340 -13 q46 0 103 16 q57 16 114 44 q18 9 29 25 q11 17 11 38 q-1 30 -20 50 q-20 19 -50 20 q-18 0 -32 -8 q-44 -22 -84 -33 q-40 -12 -71 -12 q-15 -3 -21 16 q-6 18 -6 97 q3 174 21 299 q17 125 20 147 q-1 39 -26 64 q-26 24 -65 25 q-37 0 -93 -7 q-56 -7 -106 -17 q-25 -5 -40 -24 q-16 -19 -17 -45 q1 -30 20 -50 q20 -19 50 -20 q14 1 56 9 q41 8 64 9 q6 0 6 -7 q-15 -104 -22 -202 q-8 -97 -8 -181 q-1 -125 36 -189 q38 -64 131 -64 l0 0 Z" /><glyph glyph-name="" unicode="m" d="M523 -15 q28 1 48 19 q20 19 22 47 q1 27 2 72 q0 46 0 98 q2 150 -29 240 q-31 90 -116 92 q-27 0 -54 -15 q-28 -14 -54 -39 q-16 30 -39 47 q-23 17 -53 17 q-21 0 -44 -8 q-22 -9 -44 -24 q-5 25 -24 41 q-19 16 -45 16 q-29 -1 -49 -20 q-20 -20 -21 -49 q-1 -54 -2 -127 q-1 -72 -1 -148 q0 -65 1 -116 q1 -51 2 -86 q1 -28 21 -47 q20 -19 49 -20 q30 1 50 20 q19 20 20 50 q-1 43 -2 95 q-1 52 -1 104 l0 116 q18 22 35 37 q18 15 25 16 q3 0 5 -7 q3 -6 5 -22 q5 -38 7 -93 q3 -55 3 -110 q0 -41 -1 -66 q-2 -26 -2 -30 q1 -30 20 -50 q20 -19 50 -20 q28 1 48 19 q20 19 22 47 q2 22 2 47 q1 26 1 53 q0 42 -1 85 q-2 43 -4 81 q18 28 37 47 q18 18 26 19 q4 -2 10 -55 q6 -53 7 -137 q0 -56 -1 -98 q0 -42 -1 -68 q1 -30 20 -50 q20 -19 50 -20 l0 0 Z" /><glyph glyph-name="" unicode="n" d="M476 -19 q28 1 48 19 q19 18 22 46 q5 67 9 139 q3 71 3 127 q0 119 -49 190 q-49 70 -140 72 q-43 -1 -84 -31 q-41 -30 -78 -83 q1 25 1 36 q1 10 1 14 q-1 30 -20 50 q-20 19 -50 20 q-28 -1 -48 -19 q-19 -18 -22 -46 q-2 -29 -3 -60 q0 -30 0 -61 q0 -78 4 -173 q3 -94 3 -176 q1 -30 20 -50 q20 -19 50 -20 q29 1 49 20 q20 20 21 49 q0 44 -1 92 q-1 48 -3 97 q39 88 85 144 q46 55 75 57 q21 1 35 -28 q14 -29 14 -94 q-1 -83 -6 -164 q-5 -81 -6 -97 q1 -30 20 -50 q20 -19 50 -20 l0 0 Z" /><glyph glyph-name="" unicode="o" d="M300 -22 q125 2 202 83 q77 80 79 209 q-1 144 -69 227 q-68 83 -188 85 q-121 -4 -201 -96 q-80 -92 -83 -229 q1 -131 69 -204 q68 -74 191 -75 l0 0 ZM180 257 q2 79 43 131 q41 52 101 54 q57 0 87 -42 q30 -43 30 -130 q-1 -70 -39 -110 q-37 -41 -102 -42 q-61 0 -91 33 q-29 34 -29 106 l0 0 Z" /><glyph glyph-name="" unicode="p" d="M311 -22 q122 2 194 77 q72 75 74 203 q-2 130 -66 222 q-64 91 -164 95 q-35 0 -70 -15 q-35 -15 -70 -44 l-3 34 q-3 28 -22 46 q-20 17 -48 18 q-30 -1 -50 -20 q-19 -20 -20 -50 q1 -13 8 -98 q6 -85 7 -224 q-1 -124 -8 -240 q-8 -117 -9 -134 q1 -30 20 -50 q20 -19 50 -20 q28 1 48 19 q20 19 22 47 l9 152 q25 -8 50 -13 q25 -5 48 -5 l0 0 ZM218 362 q34 35 69 54 q34 19 62 19 q33 -2 60 -54 q28 -51 30 -123 q0 -70 -33 -105 q-33 -35 -95 -35 q-21 0 -46 4 q-24 4 -46 11 q2 50 2 89 q0 34 -1 69 q0 36 -2 71 l0 0 Z" /><glyph glyph-name="" unicode="q" d="M481 -218 q30 1 50 20 q19 20 20 50 q-1 6 -4 75 q-4 69 -5 205 q1 130 5 217 q3 86 4 93 q0 17 -7 30 q-7 14 -19 24 q-47 40 -98 60 q-51 21 -102 21 q-120 -4 -203 -96 q-83 -93 -86 -229 q2 -117 75 -192 q72 -75 185 -78 q28 0 55 7 q27 7 53 21 q2 -51 4 -95 q1 -44 3 -68 q3 -28 22 -46 q20 -18 48 -19 l0 0 ZM176 252 q2 77 46 130 q43 53 103 55 q20 0 41 -7 q21 -7 43 -21 q-3 -53 -5 -117 q-2 -65 -2 -133 q-23 -18 -50 -27 q-27 -10 -56 -10 q-53 1 -86 36 q-33 35 -34 94 l0 0 Z" /><glyph glyph-name="" unicode="r" d="M165 -22 q28 1 47 18 q19 18 23 45 q6 56 10 122 q4 66 5 114 q11 68 65 116 q53 47 103 49 q4 0 7 -2 q2 -2 3 -6 q4 -19 6 -37 q2 -18 2 -32 q1 -30 20 -50 q20 -19 50 -20 q30 1 50 20 q19 20 20 50 q0 31 -7 72 q-6 41 -16 74 q-13 37 -47 55 q-34 18 -76 18 q-61 -1 -116 -30 q-54 -30 -95 -80 q-5 15 -10 29 q-5 14 -10 26 q-9 19 -26 31 q-17 12 -39 12 q-30 -1 -50 -20 q-19 -20 -20 -50 q0 -16 7 -30 q17 -39 28 -88 q11 -50 11 -88 q-1 -90 -7 -162 q-7 -72 -8 -86 q1 -30 20 -50 q20 -19 50 -20 l0 0 Z" /><glyph glyph-name="" unicode="s" d="M311 -23 q107 1 178 48 q71 46 74 128 q-1 81 -60 121 q-59 40 -168 54 q-73 10 -98 21 q-26 10 -24 25 q1 29 41 49 q40 20 108 21 q15 0 26 -3 q11 -3 12 -8 q2 -9 2 -20 q1 -10 1 -20 q1 -29 21 -48 q20 -19 49 -20 q30 1 50 20 q19 20 20 50 q0 36 -4 65 q-4 30 -10 50 q-16 43 -63 59 q-47 16 -104 15 q-125 -1 -206 -57 q-80 -56 -83 -153 q1 -86 63 -127 q62 -42 179 -57 q65 -10 87 -18 q23 -9 21 -19 q-1 -10 -33 -22 q-31 -13 -79 -14 q-46 0 -85 13 q-38 13 -74 41 q-9 7 -20 11 q-11 4 -23 4 q-30 -1 -50 -20 q-19 -20 -20 -50 q0 -17 8 -32 q7 -14 20 -24 q53 -41 115 -62 q61 -21 129 -21 l0 0 Z" /><glyph glyph-name="" unicode="t" d="M333 -20 q44 0 96 14 q52 13 100 36 q18 9 30 26 q11 17 11 38 q-1 30 -20 50 q-20 19 -50 20 q-9 0 -17 -2 q-8 -2 -15 -6 q-36 -17 -71 -27 q-35 -9 -64 -9 q-22 -2 -33 19 q-10 21 -10 82 q0 45 2 92 q2 47 4 92 q51 2 111 9 q61 8 109 17 q25 5 41 24 q15 19 16 45 q-1 30 -20 50 q-20 19 -50 20 q-9 -1 -66 -11 q-58 -9 -130 -14 q5 50 8 81 q3 30 3 32 q-1 30 -20 50 q-20 19 -50 20 q-28 -1 -47 -18 q-19 -17 -23 -44 q-3 -25 -6 -55 q-3 -30 -6 -63 q-40 4 -60 8 q-19 4 -29 4 q-30 -1 -50 -20 q-19 -20 -20 -50 q1 -26 16 -45 q16 -18 40 -24 q20 -4 44 -8 q24 -3 50 -5 q-3 -53 -5 -101 q-2 -49 -2 -86 q0 -114 45 -177 q46 -63 138 -64 l0 0 Z" /><glyph glyph-name="" unicode="u" d="M268 -20 q37 0 78 16 q41 16 87 47 q7 -14 15 -26 q8 -13 16 -24 q10 -12 24 -19 q15 -8 32 -8 q30 1 50 20 q19 20 20 50 q0 12 -4 24 q-4 11 -11 20 q-12 15 -20 31 q-8 16 -10 26 q-1 15 -2 36 q-1 21 -1 61 q1 99 5 182 q3 82 4 91 q-1 30 -20 50 q-20 19 -50 20 q-28 -1 -48 -19 q-20 -19 -22 -47 q-4 -69 -7 -144 q-2 -75 -2 -133 q0 -21 0 -37 q0 -16 1 -29 q-43 -25 -76 -36 q-33 -12 -59 -12 q-41 -2 -55 20 q-14 21 -13 94 q0 59 8 124 q7 66 22 139 q1 4 1 8 q1 4 1 8 q-1 30 -20 50 q-20 19 -50 20 q-26 -1 -45 -16 q-19 -16 -24 -41 q-33 -159 -33 -292 q0 -129 50 -191 q51 -63 158 -63 l0 0 Z" /><glyph glyph-name="" unicode="v" d="M322 -45 q30 1 50 20 q19 20 20 50 l0 7 q52 101 102 228 q49 126 80 228 q3 10 3 22 q-1 30 -20 50 q-20 19 -50 20 q-24 0 -43 -15 q-18 -14 -25 -36 q-24 -80 -57 -169 q-34 -88 -69 -167 q-40 81 -78 167 q-38 85 -65 156 q-8 21 -25 33 q-18 13 -41 13 q-30 -1 -50 -20 q-19 -20 -20 -50 q0 -13 5 -27 q44 -110 106 -244 q62 -134 115 -229 q9 -17 25 -27 q17 -10 37 -10 l0 0 Z" /><glyph glyph-name="" unicode="w" d="M171 -9 q22 0 39 12 q17 11 25 30 q18 39 38 85 q20 47 40 98 q32 -102 44 -162 q5 -25 24 -40 q19 -16 45 -17 q21 0 38 12 q17 11 26 29 q45 93 80 212 q36 119 53 235 q1 5 1 11 q-1 30 -20 50 q-20 19 -50 20 q-28 -1 -46 -18 q-19 -17 -23 -43 q-8 -57 -22 -115 q-13 -58 -31 -114 l-50 152 q-7 21 -25 35 q-18 14 -42 14 q-25 0 -43 -15 q-19 -14 -25 -37 q-11 -39 -26 -84 q-16 -45 -34 -93 q-20 78 -35 154 q-15 76 -20 126 q-3 28 -22 46 q-20 17 -48 18 q-30 -1 -50 -20 q-19 -20 -20 -50 l0 -7 q10 -90 45 -240 q35 -151 69 -239 q8 -20 25 -32 q17 -13 40 -13 l0 0 Z" /><glyph glyph-name="" unicode="x" d="M94 -22 q19 0 34 9 q16 9 25 24 q25 39 62 82 q36 44 77 84 q38 -46 84 -95 q45 -50 79 -84 q10 -10 23 -15 q13 -6 27 -6 q30 1 50 20 q19 20 20 50 q0 14 -6 27 q-5 13 -15 23 q-37 38 -81 86 q-44 48 -77 88 q55 53 102 111 q47 57 70 100 q9 16 9 34 q-1 30 -20 50 q-20 19 -50 20 q-21 0 -37 -11 q-17 -10 -26 -28 q-17 -31 -53 -75 q-36 -45 -80 -88 q-38 49 -76 91 q-37 41 -77 75 q-9 8 -21 12 q-11 5 -25 5 q-30 -1 -50 -20 q-19 -20 -20 -50 q0 -16 6 -29 q7 -14 18 -24 q36 -31 71 -69 q35 -37 71 -85 q-50 -49 -96 -102 q-45 -54 -76 -101 q-6 -8 -9 -18 q-3 -10 -3 -21 q1 -30 20 -50 q20 -19 50 -20 l0 0 Z" /><glyph glyph-name="" unicode="y" d="M146 -223 q15 0 29 6 q13 6 23 17 q55 60 108 133 q52 73 112 174 q51 85 98 185 q47 99 79 190 q4 11 4 24 q-1 30 -20 50 q-20 19 -50 20 q-24 0 -42 -14 q-18 -13 -25 -35 q-27 -76 -65 -160 q-39 -84 -82 -160 q-40 89 -85 178 q-45 89 -87 157 q-9 15 -25 25 q-15 9 -35 9 q-30 -1 -50 -20 q-19 -20 -20 -50 q0 -21 11 -38 q47 -77 102 -188 q55 -112 98 -219 q-33 -49 -64 -89 q-32 -41 -66 -78 q-8 -9 -13 -21 q-5 -12 -5 -26 q1 -30 20 -50 q20 -19 50 -20 l0 0 Z" /><glyph glyph-name="" unicode="z" d="M216 -6 q77 0 156 5 q80 4 153 17 q25 4 42 23 q16 19 17 46 q-1 30 -20 50 q-20 19 -50 20 q-11 -1 -77 -10 q-65 -9 -188 -11 q72 77 148 160 q77 84 154 174 q8 9 13 21 q4 11 4 24 q-1 30 -20 50 q-20 19 -50 20 q-5 -1 -66 -7 q-60 -6 -172 -8 q-61 1 -92 4 q-32 4 -38 4 q-30 -1 -50 -20 q-19 -20 -20 -50 q1 -27 17 -46 q17 -19 43 -23 q26 -4 62 -7 q36 -2 78 -2 q36 0 72 2 q-74 -80 -155 -168 q-81 -88 -134 -151 q-8 -9 -13 -21 q-4 -11 -4 -24 q1 -29 20 -49 q19 -20 48 -21 q33 -1 63 -1 q31 -1 59 -1 l0 0 Z" /><glyph glyph-name="" unicode="{" d="M377 -222 q38 0 77 6 q38 6 75 18 q22 6 36 25 q14 18 14 42 q-1 30 -20 50 q-20 19 -50 20 q-19 -1 -45 -10 q-27 -10 -87 -11 q-22 0 -32 11 q-11 11 -11 34 q1 21 6 84 q4 63 5 101 q1 42 -16 71 q-16 29 -55 48 q46 20 67 53 q20 32 20 77 q-2 53 -18 101 q-16 47 -18 95 q0 25 33 46 q34 22 106 36 q25 5 41 24 q16 18 17 45 q-1 30 -20 50 q-20 19 -50 20 q-7 0 -15 -2 q-117 -22 -184 -77 q-67 -54 -68 -142 q2 -59 18 -111 q16 -52 18 -85 q2 -17 -16 -29 q-19 -13 -84 -27 q-24 -6 -40 -24 q-15 -19 -16 -45 q0 -24 15 -43 q14 -18 37 -25 q62 -17 76 -28 q15 -10 12 -28 q-1 -49 -5 -99 q-5 -50 -6 -86 q1 -82 51 -133 q50 -51 132 -52 l0 0 Z" /><glyph glyph-name="" unicode="|" d="M279 -232 q30 1 50 20 q19 20 20 50 q0 46 -1 95 q-1 50 -1 104 q0 174 5 362 q5 187 13 355 q-1 30 -20 50 q-20 19 -50 20 q-29 -1 -48 -20 q-20 -19 -22 -47 q-9 -162 -13 -350 q-5 -187 -5 -370 q0 -53 0 -104 q1 -50 2 -96 q1 -29 21 -49 q20 -19 49 -20 l0 0 Z" /><glyph glyph-name="" unicode="}" d="M141 -219 l4 0 q121 5 189 48 q69 42 80 131 q1 11 1 25 q1 14 1 31 q0 26 -2 78 q-2 52 -2 67 q-1 37 18 52 q20 14 72 25 q25 6 40 24 q16 19 16 45 q-1 29 -20 49 q-20 20 -49 21 q-55 1 -75 8 q-20 6 -19 10 q1 16 10 90 q8 75 9 132 q-1 92 -47 146 q-47 55 -131 56 q-31 0 -68 -5 q-37 -4 -72 -12 q-24 -6 -40 -24 q-15 -19 -16 -45 q1 -30 20 -50 q20 -19 50 -20 q13 1 47 8 q33 7 79 8 q19 1 29 -13 q9 -13 9 -49 q-1 -52 -9 -124 q-9 -73 -10 -98 q0 -38 19 -65 q18 -28 58 -43 q-31 -19 -46 -51 q-14 -31 -14 -75 q0 -17 2 -68 q2 -52 2 -77 q0 -13 0 -23 q-1 -10 -2 -17 q-1 -24 -31 -38 q-30 -13 -105 -17 q-28 -2 -47 -21 q-19 -20 -20 -49 q1 -30 20 -50 q20 -19 50 -20 l0 0 Z" /><glyph glyph-name="" unicode="~" d="M90 154 q28 1 47 18 q19 18 23 45 q8 74 26 111 q17 37 35 37 q4 1 11 -10 q7 -11 20 -45 q28 -72 67 -109 q39 -37 99 -37 q93 2 137 79 q44 76 45 205 q-1 30 -20 50 q-20 19 -50 20 q-30 -1 -50 -20 q-19 -20 -20 -50 q-1 -73 -13 -108 q-13 -36 -29 -36 q-6 -1 -13 9 q-7 11 -23 50 q-27 69 -65 105 q-39 37 -96 37 q-88 -2 -138 -75 q-49 -74 -62 -197 q-1 -4 -1 -9 q1 -30 20 -50 q20 -19 50 -20 l0 0 Z" /></font>
</defs>
</svg>
